<?xml version="1.0" encoding="UTF-8"?>
<!-- Generated by Pixelmator Pro 3.7 -->
<svg width="1024" height="1024" viewBox="0 0 1024 1024" xmlns="http://www.w3.org/2000/svg">
    <g id="Group">
        <path id="Path" fill="#000000" stroke="none" d="M 954 191.303101 C 943.104431 273.203796 929.317627 341.927429 893.092102 461.085144 L 938.052063 461.424011 L 866.798401 567.630554 L 941.726563 688.768555 L 795.446838 688.768555 C 729.358582 809.883972 633.648376 926.293335 509.302765 988.067017 C 381.229889 921.45166 294.502686 815.154785 222.721954 688.768555 L 136.514297 688.768555 L 136.52182 490.925415 C 136.52182 490.925415 125.558571 459.45874 118.736641 434.836609 C 98.278419 361.007751 89.777374 336.129578 67 191.702209 C 385.055023 99.214783 644.769836 103.807922 954 191.303101 Z"/>
        <g id="g1">
            <path id="path1" fill="#ffffff" stroke="none" d="M 172.310547 496.256409 L 192.076035 496.256409 L 192.076035 660.238525 L 172.310547 660.238525 Z M 196.428192 660.238525 L 196.428192 496.256409 L 216.186172 496.256409 L 216.186172 660.238525 Z"/>
            <path id="path2" fill="#ffffff" stroke="none" d="M 268.035767 660.238525 L 249.708435 660.238525 L 249.708435 494.072815 C 249.708435 492.634705 250.438828 491.429871 253.096817 493.583435 L 356.539978 579.248901 L 356.539978 496.256409 L 374.882355 496.256409 L 374.882355 617.545044 L 268.035767 530.012146 Z M 290.444183 577.788147 L 290.444183 660.238525 L 272.372864 660.238525 L 272.372864 539.175781 L 379.219482 626.708679 L 379.219482 496.256409 L 397.290802 496.256409 L 397.290802 662.655518 C 397.290802 664.575562 396.57547 665.298462 393.932526 663.137451 Z"/>
            <path id="path3" fill="#ffffff" stroke="none" d="M 429.841705 496.256409 L 493.279541 496.256409 C 540.520935 496.256409 576.226807 527.369202 576.226807 578.247437 C 576.226807 629.125732 540.528503 660.238525 493.279541 660.238525 L 429.841705 660.238525 Z M 449.607208 643.831299 L 490.85498 643.831299 C 528.932739 643.831299 555.964417 618.749756 555.964417 578.247437 C 555.964417 537.745117 528.932739 512.663696 490.85498 512.663696 L 449.607208 512.663696 Z M 453.966919 517.000793 L 490.85498 517.000793 C 526.553345 517.000793 551.619751 540.613953 551.619751 578.247437 C 551.619751 615.858398 526.553345 639.524231 490.85498 639.524231 L 453.966919 639.524231 Z M 488.437958 623.086914 C 514.987671 623.086914 531.379883 605.482422 531.379883 578.239929 C 531.379883 550.997437 514.987671 533.370361 488.437958 533.370361 L 473.73996 533.370361 L 473.73996 623.086914 Z"/>
            <path id="path4" fill="#ffffff" stroke="none" d="M 599.840027 496.256409 L 714.871399 496.256409 L 714.871399 512.663696 L 619.620544 512.663696 L 619.620544 644.102295 L 718.267273 644.102295 L 718.267273 660.246033 L 599.840027 660.246033 Z M 703.064819 575.604553 L 623.972717 575.604553 L 623.972717 517.000793 L 714.871399 517.000793 L 714.871399 533.144531 L 643.73822 533.144531 L 643.73822 560.145996 L 703.064819 560.145996 Z M 718.267273 639.75769 L 623.972717 639.75769 L 623.972717 579.911499 L 703.064819 579.911499 L 703.064819 595.136597 L 643.73822 595.136597 L 643.73822 623.350464 L 718.259766 623.350464 L 718.259766 639.75769 Z"/>
            <path id="path5" fill="#ffffff" stroke="none" d="M 740.434753 496.256409 L 762.624878 496.256409 L 809.399414 571.033997 L 751.767029 660.238525 L 731.512085 660.238525 L 788.180664 572.216187 Z M 812.29834 574.881714 L 865.593628 660.230957 L 843.870422 660.230957 L 810.860168 604.526123 L 777.074341 660.230957 L 757.075439 660.230957 Z M 767.92572 496.256409 L 789.370361 496.256409 L 813.992554 537.745117 L 838.328552 496.256409 L 858.109131 496.256409 L 812.29834 567.38208 Z M 871.135498 660.238525 L 815.18219 571.033997 L 863.658508 496.256409 L 883.913391 496.256409 L 836.393433 570.288574 L 892.836121 660.238525 Z"/>
            <path id="path6" fill="#ffffff" stroke="none" d="M 255.408432 310.460815 L 325.449829 310.460815 C 357.496277 310.460815 378.127655 325.173889 378.127655 352.265747 C 378.127655 371.47406 368.647766 382.173767 355.832214 386.932556 C 370.80127 391.194397 385.055023 402.119995 385.055023 425.145813 C 385.055023 454.579529 363.42215 471.912903 323.326416 471.912903 L 255.408432 471.912903 Z M 319.523926 373.620056 C 331.390747 373.620056 335.901062 368.16095 335.901062 359.140381 C 335.901062 350.134888 331.865112 344.412292 319.983246 344.412292 L 297.205872 344.412292 L 297.205872 373.612549 L 319.523926 373.612549 Z M 323.070404 437.961426 C 337.105804 437.961426 341.834473 431.538574 341.834473 421.09491 C 341.834473 410.666199 336.849792 404.484314 323.070404 404.484314 L 297.198334 404.484314 L 297.198334 437.953918 L 323.070404 437.953918 Z"/>
            <path id="path7" fill="#ffffff" stroke="none" d="M 410.686157 310.460815 L 453.891632 310.460815 L 453.891632 471.905334 L 410.686157 471.905334 Z"/>
            <path id="path8" fill="#ffffff" stroke="none" d="M 579.494751 310.460815 L 626.254272 310.460815 L 572.61261 380.502197 L 632.677063 471.905334 L 581.640686 471.905334 L 543.171387 413.279053 L 529.655579 429.889587 L 529.655579 471.905334 L 486.42749 471.905334 L 486.42749 310.460815 L 529.655579 310.460815 L 529.655579 377.415039 Z"/>
            <path id="path9" fill="#ffffff" stroke="none" d="M 651.900452 310.460815 L 765.184937 310.460815 L 765.184937 346.791687 L 695.128479 346.791687 L 695.128479 373.379089 L 753.521423 373.379089 L 753.521423 407.8125 L 695.128479 407.8125 L 695.128479 435.589539 L 768.490479 435.589539 L 768.490479 471.905334 L 651.900452 471.905334 Z"/>
        </g>
        <g id="g2">
            <path id="path10" fill="#3498db" stroke="none" d="M 207.361359 471.694519 C 174.825455 375.848816 158.207397 292.765991 150.82074 248.461182 C 205.621979 233.492126 338.830109 202.85376 511.652039 202.85376 C 635.410339 202.85376 756.819397 218.380005 872.799561 249.033447 C 865.156921 293.511414 848.162354 376.511414 815.513489 471.694519 L 856.685974 471.694519 C 892.241272 364.847961 908.482849 274.664551 914.190369 237.814148 L 916.848389 220.676514 L 900.124878 216.023193 C 775.696411 181.409119 644.973145 163.849854 511.652039 163.849854 C 312.596588 163.849854 164.050446 203.553955 123.246941 215.752136 L 107.027946 220.593689 L 109.54287 237.347351 C 115.039558 274.122437 130.844421 364.253052 166.211472 471.702026 L 207.361359 471.702026 Z"/>
            <path id="path11" fill="#3498db" stroke="none" d="M 718.756714 684.371216 C 667.833313 769.931274 599.960449 852.381714 510.868958 906.972107 C 421.822601 852.381714 354.138 769.931274 303.44046 684.371216 L 258.450439 684.371216 C 314.847961 784.870239 393.480743 884.187134 501.102905 946.533142 L 510.868958 952.218079 L 520.6651 946.533142 C 628.287231 884.187134 707.153442 784.862732 763.837097 684.371216 Z"/>
        </g>
    </g>
</svg>
