<?xml version="1.0" encoding="UTF-8"?>
<!-- Generated by Pixelmator Pro 3.7 -->
<svg width="1024" height="1024" viewBox="0 0 1024 1024" xmlns="http://www.w3.org/2000/svg">
    <g id="Group">
        <path id="Path" fill="#000000" stroke="none" d="M 955 191.303101 C 944.104431 273.203796 930.317627 341.927429 894.092102 461.085144 L 939.052063 461.424011 L 867.798401 567.630554 L 942.726563 688.768555 L 796.446838 688.768555 C 730.358582 809.883972 634.648376 926.293335 510.302765 988.067017 C 382.229889 921.45166 295.502686 815.154785 223.721954 688.768555 L 137.514297 688.768555 L 137.52182 490.925415 C 137.52182 490.925415 126.558571 459.45874 119.736641 434.836609 C 99.278419 361.007751 90.777374 336.129578 68 191.702209 C 386.055023 99.214783 645.769836 103.807922 955 191.303101 Z"/>
        <g id="g1">
            <path id="path1" fill="#ffffff" stroke="none" d="M 173.310547 496.256409 L 193.076035 496.256409 L 193.076035 660.238525 L 173.310547 660.238525 Z M 197.428192 660.238525 L 197.428192 496.256409 L 217.186172 496.256409 L 217.186172 660.238525 Z"/>
            <path id="path2" fill="#ffffff" stroke="none" d="M 269.035767 660.238525 L 250.708435 660.238525 L 250.708435 494.072815 C 250.708435 492.634705 251.438828 491.429871 254.096817 493.583435 L 357.539978 579.248901 L 357.539978 496.256409 L 375.882355 496.256409 L 375.882355 617.545044 L 269.035767 530.012146 Z M 291.444183 577.788147 L 291.444183 660.238525 L 273.372864 660.238525 L 273.372864 539.175781 L 380.219482 626.708679 L 380.219482 496.256409 L 398.290802 496.256409 L 398.290802 662.655518 C 398.290802 664.575562 397.57547 665.298462 394.932526 663.137451 Z"/>
            <path id="path3" fill="#ffffff" stroke="none" d="M 430.841705 496.256409 L 494.279541 496.256409 C 541.520935 496.256409 577.226807 527.369202 577.226807 578.247437 C 577.226807 629.125732 541.528503 660.238525 494.279541 660.238525 L 430.841705 660.238525 Z M 450.607208 643.831299 L 491.85498 643.831299 C 529.932739 643.831299 556.964417 618.749756 556.964417 578.247437 C 556.964417 537.745117 529.932739 512.663696 491.85498 512.663696 L 450.607208 512.663696 Z M 454.966919 517.000793 L 491.85498 517.000793 C 527.553345 517.000793 552.619751 540.613953 552.619751 578.247437 C 552.619751 615.858398 527.553345 639.524231 491.85498 639.524231 L 454.966919 639.524231 Z M 489.437958 623.086914 C 515.987671 623.086914 532.379883 605.482422 532.379883 578.239929 C 532.379883 550.997437 515.987671 533.370361 489.437958 533.370361 L 474.73996 533.370361 L 474.73996 623.086914 Z"/>
            <path id="path4" fill="#ffffff" stroke="none" d="M 600.840027 496.256409 L 715.871399 496.256409 L 715.871399 512.663696 L 620.620544 512.663696 L 620.620544 644.102295 L 719.267273 644.102295 L 719.267273 660.246033 L 600.840027 660.246033 Z M 704.064819 575.604553 L 624.972717 575.604553 L 624.972717 517.000793 L 715.871399 517.000793 L 715.871399 533.144531 L 644.73822 533.144531 L 644.73822 560.145996 L 704.064819 560.145996 Z M 719.267273 639.75769 L 624.972717 639.75769 L 624.972717 579.911499 L 704.064819 579.911499 L 704.064819 595.136597 L 644.73822 595.136597 L 644.73822 623.350464 L 719.259766 623.350464 L 719.259766 639.75769 Z"/>
            <path id="path5" fill="#ffffff" stroke="none" d="M 741.434753 496.256409 L 763.624878 496.256409 L 810.399414 571.033997 L 752.767029 660.238525 L 732.512085 660.238525 L 789.180664 572.216187 Z M 813.29834 574.881714 L 866.593628 660.230957 L 844.870422 660.230957 L 811.860168 604.526123 L 778.074341 660.230957 L 758.075439 660.230957 Z M 768.92572 496.256409 L 790.370361 496.256409 L 814.992554 537.745117 L 839.328552 496.256409 L 859.109131 496.256409 L 813.29834 567.38208 Z M 872.135498 660.238525 L 816.18219 571.033997 L 864.658508 496.256409 L 884.913391 496.256409 L 837.393433 570.288574 L 893.836121 660.238525 Z"/>
            <path id="path6" fill="#ffffff" stroke="none" d="M 256.408447 310.460815 L 326.449829 310.460815 C 358.496277 310.460815 379.127655 325.173889 379.127655 352.265747 C 379.127655 371.47406 369.647766 382.173767 356.832214 386.932556 C 371.80127 391.194397 386.055023 402.119995 386.055023 425.145813 C 386.055023 454.579529 364.42215 471.912903 324.326416 471.912903 L 256.408447 471.912903 Z M 320.523926 373.620056 C 332.390747 373.620056 336.901062 368.16095 336.901062 359.140381 C 336.901062 350.134888 332.865112 344.412292 320.983246 344.412292 L 298.205872 344.412292 L 298.205872 373.612549 L 320.523926 373.612549 Z M 324.070404 437.961426 C 338.105804 437.961426 342.834473 431.538574 342.834473 421.09491 C 342.834473 410.666199 337.849792 404.484314 324.070404 404.484314 L 298.198334 404.484314 L 298.198334 437.953918 L 324.070404 437.953918 Z"/>
            <path id="path7" fill="#ffffff" stroke="none" d="M 411.686157 310.460815 L 454.891632 310.460815 L 454.891632 471.905334 L 411.686157 471.905334 Z"/>
            <path id="path8" fill="#ffffff" stroke="none" d="M 580.494751 310.460815 L 627.254272 310.460815 L 573.61261 380.502197 L 633.677063 471.905334 L 582.640686 471.905334 L 544.171387 413.279053 L 530.655579 429.889587 L 530.655579 471.905334 L 487.42749 471.905334 L 487.42749 310.460815 L 530.655579 310.460815 L 530.655579 377.415039 Z"/>
            <path id="path9" fill="#ffffff" stroke="none" d="M 652.900452 310.460815 L 766.184937 310.460815 L 766.184937 346.791687 L 696.128479 346.791687 L 696.128479 373.379089 L 754.521423 373.379089 L 754.521423 407.8125 L 696.128479 407.8125 L 696.128479 435.589539 L 769.490479 435.589539 L 769.490479 471.905334 L 652.900452 471.905334 Z"/>
        </g>
        <g id="g2">
            <path id="path10" fill="#3498db" stroke="none" d="M 208.361359 471.694519 C 175.825455 375.848816 159.207397 292.765991 151.82074 248.461182 C 206.621979 233.492126 339.830109 202.85376 512.652039 202.85376 C 636.410339 202.85376 757.819397 218.380005 873.799561 249.033447 C 866.156921 293.511414 849.162354 376.511414 816.513489 471.694519 L 857.685974 471.694519 C 893.241272 364.847961 909.482849 274.664551 915.190369 237.814148 L 917.848389 220.676514 L 901.124878 216.023193 C 776.696411 181.409119 645.973145 163.849854 512.652039 163.849854 C 313.596588 163.849854 165.050446 203.553955 124.246941 215.752136 L 108.027946 220.593689 L 110.54287 237.347351 C 116.039558 274.122437 131.844421 364.253052 167.211472 471.702026 L 208.361359 471.702026 Z"/>
            <path id="path11" fill="#3498db" stroke="none" d="M 719.756714 684.371216 C 668.833313 769.931274 600.960449 852.381714 511.868958 906.972107 C 422.822601 852.381714 355.138 769.931274 304.44046 684.371216 L 259.450439 684.371216 C 315.847961 784.870239 394.480743 884.187134 502.102905 946.533142 L 511.868958 952.218079 L 521.6651 946.533142 C 629.287231 884.187134 708.153442 784.862732 764.837097 684.371216 Z"/>
        </g>
    </g>
</svg>
