<?xml version="1.0" encoding="UTF-8"?>
<!-- Generated by Pixelmator Pro 3.7 -->
<svg width="1024" height="1024" viewBox="0 0 1024 1024" xmlns="http://www.w3.org/2000/svg">
    <g id="Group">
        <path id="Path" fill="#ffffff" stroke="none" d="M 173.136719 452.650574 L 192.915085 452.650574 L 192.915085 616.669922 L 173.136719 616.669922 Z M 197.256668 616.673706 L 197.256668 452.650574 L 217.038757 452.650574 L 217.038757 616.669922 L 197.256668 616.669922 Z"/>
        <path id="path1" fill="#ffffff" stroke="none" d="M 268.892944 616.673706 L 250.55809 616.673706 L 250.55809 450.483459 C 250.55809 449.032593 251.281677 447.830261 253.93486 450.001099 L 357.416901 535.630676 L 357.416901 452.650574 L 375.744354 452.650574 L 375.744354 573.977661 L 268.892944 486.422241 Z M 291.324524 534.179749 L 291.324524 616.669922 L 273.234558 616.669922 L 273.234558 495.584106 L 380.085938 583.14325 L 380.085938 452.650574 L 398.179626 452.650574 L 398.179626 619.085693 C 398.179626 621.015259 397.459717 621.738892 394.802826 619.571838 Z"/>
        <path id="path2" fill="#ffffff" stroke="none" d="M 430.734131 452.650574 L 494.177002 452.650574 C 541.452148 452.650574 577.149658 483.768982 577.149658 534.665833 C 577.149658 585.55896 541.452148 616.673706 494.177002 616.673706 L 430.734131 616.673706 Z M 450.516205 600.272095 L 491.761292 600.272095 C 529.874512 600.272095 556.888916 575.187378 556.888916 534.665833 C 556.888916 494.140625 529.874512 469.055847 491.761292 469.055847 L 450.516205 469.055847 Z M 454.857819 473.397461 L 491.761292 473.397461 C 527.462585 473.397461 552.547302 497.031311 552.547302 534.665833 C 552.547302 572.292969 527.462585 595.930542 491.761292 595.930542 L 454.857819 595.930542 Z M 489.349335 579.528931 C 515.881287 579.528931 532.282837 561.921387 532.282837 534.665833 C 532.282837 507.402832 515.881287 489.799011 489.349335 489.799011 L 474.636169 489.799011 L 474.636169 579.528931 Z"/>
        <path id="path3" fill="#ffffff" stroke="none" d="M 600.779785 452.650574 L 715.835632 452.650574 L 715.835632 469.055847 L 620.558167 469.055847 L 620.558167 600.513306 L 719.212463 600.513306 L 719.212463 616.669922 L 600.779785 616.669922 Z M 704.013184 532.008911 L 624.899719 532.008911 L 624.899719 473.397461 L 715.835632 473.397461 L 715.835632 489.554077 L 644.678101 489.554077 L 644.678101 516.568481 L 704.013184 516.568481 Z M 719.212463 596.16803 L 624.899719 596.16803 L 624.899719 536.350586 L 704.013184 536.350586 L 704.013184 551.546082 L 644.678101 551.546082 L 644.678101 579.766479 L 719.212463 579.766479 Z"/>
        <path id="path4" fill="#ffffff" stroke="none" d="M 741.395386 452.650574 L 763.585815 452.650574 L 810.374756 527.422424 L 752.728088 616.669922 L 732.467346 616.669922 L 789.152954 528.628418 Z M 813.280334 531.289063 L 866.585388 616.673706 L 844.873718 616.673706 L 811.829407 560.952881 L 778.061401 616.673706 L 758.038147 616.673706 Z M 768.895874 452.650574 L 790.36261 452.650574 L 814.968689 494.140625 L 839.326111 452.650574 L 859.104492 452.650574 L 813.27655 523.808167 Z M 872.129272 616.673706 L 816.170959 527.426147 L 864.655823 452.654297 L 884.912842 452.654297 L 837.396545 526.702515 L 893.840942 616.673706 Z"/>
        <path id="path5" fill="#ffffff" stroke="none" d="M 256.257782 266.819336 L 326.30957 266.819336 C 358.370575 266.819336 379.028381 281.54364 379.028381 308.617371 C 379.028381 327.853943 369.528809 338.533508 356.704407 343.29071 C 371.666229 347.561768 385.915558 358.489929 385.915558 381.522644 C 385.915558 410.971313 364.304077 428.30426 324.17218 428.30426 L 256.257782 428.30426 Z M 320.376068 329.991333 C 332.250519 329.991333 336.762787 324.525391 336.762787 315.504517 C 336.762787 306.483704 332.725494 300.780212 320.851013 300.780212 L 298.052124 300.780212 L 298.052124 329.991333 Z M 323.934662 394.343323 C 337.94281 394.343323 342.696289 387.931152 342.696289 377.485352 C 342.696289 367.035889 337.709045 360.861145 323.934662 360.861145 L 298.048401 360.861145 L 298.048401 394.343323 Z"/>
        <path id="path6" fill="#ffffff" stroke="none" d="M 411.57547 266.819336 L 454.791016 266.819336 L 454.791016 428.30426 L 411.57547 428.30426 Z"/>
        <path id="path7" fill="#ffffff" stroke="none" d="M 580.422546 266.819336 L 627.200378 266.819336 L 573.531616 336.874756 L 633.61261 428.30426 L 582.556213 428.30426 L 544.086731 369.648254 L 530.549927 386.268738 L 530.549927 428.30426 L 487.334381 428.30426 L 487.334381 266.819336 L 530.549927 266.819336 L 530.549927 333.787415 Z"/>
        <path id="path8" fill="#ffffff" stroke="none" d="M 652.860352 266.819336 L 766.131348 266.819336 L 766.131348 303.151367 L 696.075867 303.151367 L 696.075867 329.750122 L 754.494385 329.750122 L 754.494385 364.182312 L 696.075867 364.182312 L 696.075867 391.964783 L 769.452454 391.964783 L 769.452454 428.300537 L 652.856628 428.300537 L 652.856628 266.819336 Z"/>
        <path id="path9" fill="#ffffff" stroke="none" d="M 208.20343 428.074219 C 175.648911 332.195557 159.039551 249.111511 151.647705 204.808777 C 206.459381 189.809875 339.697998 159.181213 512.56012 159.181213 C 636.365967 159.181213 757.80072 174.710815 873.817688 205.372803 C 866.158691 249.849976 849.159607 332.870911 816.497498 428.074219 L 857.701843 428.074219 C 893.250916 321.215332 909.496643 231.010498 915.203796 194.14032 L 917.856995 177.000305 L 901.147461 172.354431 C 776.658813 137.718201 645.913757 120.151428 512.56012 120.151428 C 313.466614 120.151428 164.876572 159.901123 124.076744 172.079895 L 107.857002 176.922363 L 110.365479 193.665405 C 115.864822 230.461243 131.66153 320.621704 167.051071 428.077881 L 208.20343 428.077881 Z"/>
        <path id="path10" fill="#ffffff" stroke="none" d="M 719.728271 640.823364 C 668.77948 726.404663 600.880005 808.891174 511.784576 863.465332 C 422.711456 808.891174 355.00119 726.404663 304.297333 640.823364 L 259.282074 640.823364 C 315.7005 741.325562 394.350128 840.684937 501.999298 903.066589 L 511.780884 908.73291 L 521.573547 903.066589 C 629.226501 840.684937 708.102417 741.325562 764.806641 640.823364 Z"/>
    </g>
</svg>
