<?xml version="1.0" encoding="UTF-8"?>
<!-- Generated by Pixelmator Pro 3.7 -->
<svg width="1024" height="1024" viewBox="0 0 1024 1024" xmlns="http://www.w3.org/2000/svg">
    <g id="Group">
        <path id="Path" fill="#ffffff" stroke="none" d="M 172.136719 495.650574 L 191.915085 495.650574 L 191.915085 659.669922 L 172.136719 659.669922 Z M 196.256668 659.673706 L 196.256668 495.650574 L 216.038757 495.650574 L 216.038757 659.669922 L 196.256668 659.669922 Z"/>
        <path id="path1" fill="#ffffff" stroke="none" d="M 267.892944 659.673706 L 249.55809 659.673706 L 249.55809 493.483459 C 249.55809 492.032593 250.281677 490.830261 252.93486 493.001099 L 356.416901 578.630676 L 356.416901 495.650574 L 374.744354 495.650574 L 374.744354 616.977661 L 267.892944 529.422241 Z M 290.324524 577.179749 L 290.324524 659.669922 L 272.234558 659.669922 L 272.234558 538.584106 L 379.085938 626.14325 L 379.085938 495.650574 L 397.179626 495.650574 L 397.179626 662.085693 C 397.179626 664.015259 396.459717 664.738892 393.802826 662.571838 Z"/>
        <path id="path2" fill="#ffffff" stroke="none" d="M 429.734131 495.650574 L 493.177002 495.650574 C 540.452148 495.650574 576.149658 526.768982 576.149658 577.665833 C 576.149658 628.55896 540.452148 659.673706 493.177002 659.673706 L 429.734131 659.673706 Z M 449.516205 643.272095 L 490.761292 643.272095 C 528.874512 643.272095 555.888916 618.187378 555.888916 577.665833 C 555.888916 537.140625 528.874512 512.055847 490.761292 512.055847 L 449.516205 512.055847 Z M 453.857819 516.397461 L 490.761292 516.397461 C 526.462585 516.397461 551.547302 540.031311 551.547302 577.665833 C 551.547302 615.292969 526.462585 638.930542 490.761292 638.930542 L 453.857819 638.930542 Z M 488.349335 622.528931 C 514.881287 622.528931 531.282837 604.921387 531.282837 577.665833 C 531.282837 550.402832 514.881287 532.799011 488.349335 532.799011 L 473.636169 532.799011 L 473.636169 622.528931 Z"/>
        <path id="path3" fill="#ffffff" stroke="none" d="M 599.779785 495.650574 L 714.835632 495.650574 L 714.835632 512.055847 L 619.558167 512.055847 L 619.558167 643.513306 L 718.212463 643.513306 L 718.212463 659.669922 L 599.779785 659.669922 Z M 703.013184 575.008911 L 623.899719 575.008911 L 623.899719 516.397461 L 714.835632 516.397461 L 714.835632 532.554077 L 643.678101 532.554077 L 643.678101 559.568481 L 703.013184 559.568481 Z M 718.212463 639.16803 L 623.899719 639.16803 L 623.899719 579.350586 L 703.013184 579.350586 L 703.013184 594.546082 L 643.678101 594.546082 L 643.678101 622.766479 L 718.212463 622.766479 Z"/>
        <path id="path4" fill="#ffffff" stroke="none" d="M 740.395386 495.650574 L 762.585815 495.650574 L 809.374756 570.422424 L 751.728088 659.669922 L 731.467346 659.669922 L 788.152954 571.628418 Z M 812.280334 574.289063 L 865.585388 659.673706 L 843.873718 659.673706 L 810.829407 603.952881 L 777.061401 659.673706 L 757.038147 659.673706 Z M 767.895874 495.650574 L 789.36261 495.650574 L 813.968689 537.140625 L 838.326111 495.650574 L 858.104492 495.650574 L 812.27655 566.808167 Z M 871.129272 659.673706 L 815.170959 570.426147 L 863.655823 495.654297 L 883.912842 495.654297 L 836.396545 569.702515 L 892.840942 659.673706 Z"/>
        <path id="path5" fill="#ffffff" stroke="none" d="M 255.257782 309.819336 L 325.30957 309.819336 C 357.370575 309.819336 378.028381 324.54364 378.028381 351.617371 C 378.028381 370.853943 368.528809 381.533508 355.704407 386.29071 C 370.666229 390.561768 384.915558 401.489929 384.915558 424.522644 C 384.915558 453.971313 363.304077 471.30426 323.17218 471.30426 L 255.257782 471.30426 Z M 319.376068 372.991333 C 331.250519 372.991333 335.762787 367.525391 335.762787 358.504517 C 335.762787 349.483704 331.725494 343.780212 319.851013 343.780212 L 297.052124 343.780212 L 297.052124 372.991333 Z M 322.934662 437.343323 C 336.94281 437.343323 341.696289 430.931152 341.696289 420.485352 C 341.696289 410.035889 336.709045 403.861145 322.934662 403.861145 L 297.048401 403.861145 L 297.048401 437.343323 Z"/>
        <path id="path6" fill="#ffffff" stroke="none" d="M 410.57547 309.819336 L 453.791016 309.819336 L 453.791016 471.30426 L 410.57547 471.30426 Z"/>
        <path id="path7" fill="#ffffff" stroke="none" d="M 579.422546 309.819336 L 626.200378 309.819336 L 572.531616 379.874756 L 632.61261 471.30426 L 581.556213 471.30426 L 543.086731 412.648254 L 529.549927 429.268738 L 529.549927 471.30426 L 486.334381 471.30426 L 486.334381 309.819336 L 529.549927 309.819336 L 529.549927 376.787415 Z"/>
        <path id="path8" fill="#ffffff" stroke="none" d="M 651.860352 309.819336 L 765.131348 309.819336 L 765.131348 346.151367 L 695.075867 346.151367 L 695.075867 372.750122 L 753.494385 372.750122 L 753.494385 407.182312 L 695.075867 407.182312 L 695.075867 434.964783 L 768.452454 434.964783 L 768.452454 471.300537 L 651.856628 471.300537 L 651.856628 309.819336 Z"/>
        <path id="path9" fill="#ffffff" stroke="none" d="M 207.20343 471.074219 C 174.648911 375.195557 158.039551 292.111511 150.647705 247.808777 C 205.459381 232.809875 338.697998 202.181213 511.56012 202.181213 C 635.365967 202.181213 756.80072 217.710815 872.817688 248.372803 C 865.158691 292.849976 848.159607 375.870911 815.497498 471.074219 L 856.701843 471.074219 C 892.250916 364.215332 908.496643 274.010498 914.203796 237.14032 L 916.856995 220.000305 L 900.147461 215.354431 C 775.658813 180.718201 644.913757 163.151428 511.56012 163.151428 C 312.466614 163.151428 163.876572 202.901123 123.076744 215.079895 L 106.857002 219.922363 L 109.365479 236.665405 C 114.864822 273.461243 130.66153 363.621704 166.051071 471.077881 L 207.20343 471.077881 Z"/>
        <path id="path10" fill="#ffffff" stroke="none" d="M 718.728271 683.823364 C 667.77948 769.404663 599.880005 851.891174 510.784576 906.465332 C 421.711456 851.891174 354.00119 769.404663 303.297333 683.823364 L 258.282074 683.823364 C 314.7005 784.325562 393.350128 883.684937 500.999298 946.066589 L 510.780884 951.73291 L 520.573547 946.066589 C 628.226501 883.684937 707.102417 784.325562 763.806641 683.823364 Z"/>
    </g>
</svg>
