<?xml version="1.0" encoding="UTF-8"?>
<!-- Generated by Pixelmator Pro 3.5.3 -->
<svg width="235" height="235" viewBox="0 0 235 235" xmlns="http://www.w3.org/2000/svg">
    <g id="how-icon-recover-Layer2">
        <g id="how-icon-recover">
            <g id="Group">
                <clipPath id="clipPath1">
                    <path d="M 183.300004 82.430004 L 183.300004 -35.510014 L 54.299998 -35.510014 L 54.299998 82.430004 C 26.863368 116.307293 30.310865 165.636971 62.192927 195.368675 C 94.074998 225.100349 143.52501 225.100349 175.407075 195.368675 C 207.28914 165.636971 210.736634 116.307293 183.300004 82.430004 Z"/>
                </clipPath>
                <g id="g1" clip-path="url(#clipPath1)">
                    <path id="Path" fill="#231f20" stroke="none" d="M 156.850006 88.320007 C 156.850006 84.644547 153.870453 81.665009 150.195007 81.665009 C 146.519547 81.665009 143.539993 84.644547 143.539993 88.320007 L 143.539993 159.790009 L 128.369995 154.12001 L 128.369995 150.87001 C 133.780914 146.959976 136.942734 140.655014 136.839996 133.980011 C 136.839996 122.980011 128.839996 114.050003 118.839996 114.050003 C 108.839996 114.050003 100.839996 122.970001 100.839996 133.980011 C 100.737267 140.655014 103.899078 146.959976 109.309998 150.87001 L 109.309998 154.12001 L 94.139999 159.75 L 94.139999 98.580002 C 94.139999 94.904556 91.160454 91.925003 87.485001 91.925003 C 83.809547 91.925003 80.830002 94.904556 80.830002 98.580002 C 80.830002 98.580002 84 232 84 232 L 157 232 Z"/>
                </g>
                <path id="path1" fill="#3498db" stroke="none" d="M 213.929993 135.490005 L 214.929993 135.130005 L 215.020004 133.300003 L 214.139999 132.950012 C 212.637939 132.605133 211.256332 131.862518 210.139999 130.800003 C 210.073334 129.26001 209.973328 127.730011 209.839996 126.210007 C 210.677719 124.908447 211.901505 123.901443 213.339996 123.330002 L 214.270004 122.850006 L 214.130005 121.029999 L 213.210007 120.800003 C 211.667648 120.657654 210.192383 120.10141 208.940002 119.190002 C 208.680008 117.656662 208.386673 116.136673 208.059998 114.630005 C 208.731033 113.246155 209.813919 112.103897 211.160004 111.360001 L 212.020004 110.76001 L 211.649994 108.970001 L 210.710007 108.850006 C 209.169235 108.902023 207.642761 108.539398 206.289993 107.800003 C 205.843323 106.306671 205.360001 104.830017 204.839996 103.37001 C 205.333664 101.918701 206.262451 100.654709 207.5 99.75 L 208.279999 99.050003 L 207.690002 97.320007 L 206.740005 97.320007 C 205.216705 97.567093 203.654953 97.397781 202.220001 96.830002 C 201.58667 95.410004 200.919998 94.006683 200.220001 92.62001 C 200.526932 91.115387 201.291916 89.742599 202.410004 88.690002 L 203.100006 87.900009 L 202.300003 86.259995 L 201.360001 86.380005 C 199.878036 86.814743 198.306335 86.842377 196.809998 86.460007 C 196.309998 85.630005 195.809998 84.820007 195.240005 84 C 193.101151 87.067261 190.480698 89.768738 187.479996 92 C 208.17421 126.204666 201.30571 170.332245 171.194412 196.628998 C 141.083115 222.925751 96.432549 223.79068 65.325417 198.67981 C 34.218288 173.568939 25.645985 129.740448 45 94.76001 C 42.376751 91.391479 40.390831 87.572144 39.139999 83.490005 C 38.400002 84.610001 37.68 85.75 36.990002 86.900009 C 35.550091 87.452667 33.973881 87.543533 32.48 87.160004 L 31.48 87.009995 L 30.48 88.559998 L 31.08 89.290009 C 32.243317 90.30777 33.110458 91.620575 33.59 93.090012 C 32.923332 94.476669 32.256668 95.883331 31.59 97.310013 C 30.236465 98.032562 28.69264 98.31897 27.17 98.130005 L 26.120001 98.130005 L 25.370001 99.790009 L 26.059999 100.440002 C 27.353296 101.297882 28.390017 102.490112 29.060001 103.889999 C 28.546667 105.350006 28.07 106.830002 27.630001 108.330002 C 26.37557 109.218292 24.877089 109.696838 23.34 109.700012 L 22.34 109.810013 L 21.75 111.490005 L 22.52 112.050003 C 23.898636 112.747574 25.063046 113.804871 25.889999 115.110001 C 25.57 116.616669 25.286667 118.136673 25.040001 119.669998 C 23.907738 120.715424 22.478422 121.382904 20.950001 121.580002 L 19.950001 121.820007 L 19.639999 123.62001 L 20.469999 124.070007 C 21.930445 124.594482 23.222458 125.503036 24.210001 126.700012 C 24.083334 128.220016 23.993334 129.753342 23.940001 131.300003 C 22.944654 132.488495 21.601629 133.334885 20.1 133.720001 L 19.1 134.090012 L 19 135.950012 L 19.879999 136.300003 C 21.38118 136.641556 22.762808 137.380722 23.880001 138.440002 C 23.940001 139.979996 24.040001 141.513336 24.18 143.040009 C 23.342281 144.341568 22.1185 145.348557 20.68 145.919998 L 19.75 146.410004 L 19.889999 148.230011 L 20.809999 148.470001 C 22.352123 148.613327 23.827148 149.169479 25.08 150.080002 C 25.333334 151.613342 25.626667 153.133331 25.960001 154.639999 C 25.289509 156.024231 24.206495 157.166641 22.860001 157.910004 L 22 158.490005 L 22.370001 160.279999 L 23.309999 160.400009 C 24.846285 160.331696 26.372738 160.677048 27.73 161.400009 C 28.176666 162.893341 28.663334 164.373337 29.190001 165.839996 C 28.710411 167.298615 27.791851 168.573425 26.559999 169.48999 L 25.780001 170.190002 L 26.370001 171.919983 L 27.32 171.919983 C 28.843304 171.673401 30.404926 171.842712 31.84 172.410004 C 32.473335 173.83667 33.139999 175.243332 33.84 176.630005 C 33.533688 178.134857 32.768604 179.507813 31.65 180.559998 L 30.960001 181.359985 L 31.76 183 L 32.700001 182.880005 C 34.181667 182.443298 35.753899 182.415649 37.25 182.799988 C 38.056667 184.133331 38.889999 185.440002 39.75 186.720001 C 39.637383 188.253906 39.05024 189.714783 38.07 190.899994 L 37.490002 191.779999 L 38.490002 193.309998 L 39.41 193.079987 C 40.8307 192.460449 42.392292 192.235901 43.93 192.429993 C 44.883335 193.636658 45.883335 194.816666 46.93 195.970001 C 47.0182 197.51651 46.619514 199.051788 45.790001 200.359985 L 45.32 201.299988 L 46.5 202.690002 L 47.380001 202.339996 C 48.713665 201.545593 50.237671 201.127441 51.790001 201.130005 C 52.883335 202.209991 54.003334 203.256653 55.150002 204.269989 C 55.431953 205.793732 55.229107 207.367554 54.57 208.769989 L 54.220001 209.769989 L 55.57 211 L 56.400002 210.540009 C 57.622665 209.585999 59.081028 208.981232 60.619999 208.790009 C 61.846664 209.723328 63.096664 210.626663 64.370003 211.5 C 64.838745 212.970215 64.838745 214.549805 64.370003 216.019989 L 64.150002 217.019989 L 65.639999 218.070007 L 66.410004 217.51001 C 67.500145 216.416046 68.864471 215.635437 70.360001 215.25 C 71.693336 216.029999 73.056671 216.776657 74.450005 217.48999 C 75.084648 218.885681 75.273224 220.443176 74.990005 221.949982 L 74.900002 222.949982 L 76.510002 223.799988 L 77.200005 223.149994 C 78.138321 221.963593 79.373283 221.04599 80.779999 220.48999 C 82.213333 221.096664 83.666664 221.666656 85.139999 222.199982 C 85.936775 223.505249 86.313751 225.023621 86.220001 226.549988 L 86.220001 227.549988 L 87.93 228.199982 L 88.529999 227.470001 C 89.30983 226.141296 90.432281 225.046478 91.779999 224.299988 C 93.273331 224.720001 94.783333 225.103333 96.309998 225.449982 C 97.301727 226.648621 97.892769 228.127991 98 229.680008 L 98.18 230.680008 L 99.949997 231.110001 L 100.459999 230.310013 C 101.068283 228.888916 102.049599 227.658813 103.300003 226.75 C 104.82 226.970001 106.353333 227.156662 107.900002 227.309998 C 109.020226 228.384918 109.775589 229.783737 110.059998 231.310013 L 110.360001 232.310013 L 112.169998 232.509995 L 112.57 231.650009 C 112.99955 230.157883 113.8255 228.810089 114.959999 227.75 L 116.959999 227.75 C 117.82 227.75 118.676666 227.75 119.529999 227.75 C 120.77404 228.667419 121.7005 229.950516 122.18 231.419998 L 122.610001 232.419998 L 124.43 232.419998 L 124.720001 231.520004 C 124.957085 229.990158 125.603195 228.552826 126.589996 227.359985 C 128.136673 227.199997 129.67334 227.003326 131.199997 226.769989 C 132.540344 227.525574 133.613052 228.67865 134.270004 230.069992 L 134.809998 230.970016 L 136.62001 230.710007 L 136.800003 229.780014 C 136.845688 228.240143 137.305099 226.741028 138.130005 225.440002 C 139.656662 225.08667 141.16333 224.696671 142.650009 224.269989 C 144.065689 224.853149 145.266998 225.858887 146.089996 227.149994 L 146.740005 227.970001 L 148.5 227.48999 L 148.559998 226.539978 C 148.411041 225.007904 148.677002 223.463928 149.330002 222.069977 C 150.790009 221.529984 152.236664 220.953323 153.669998 220.339996 C 155.149811 220.742218 156.469711 221.590729 157.449997 222.769989 L 158.199997 223.5 L 159.889999 222.799988 L 159.830002 221.849976 C 159.491135 220.345245 159.56366 218.777039 160.039993 217.309998 C 161.41333 216.589996 162.766678 215.83667 164.100006 215.049988 C 165.628204 215.258148 167.053955 215.936066 168.179993 216.98999 L 169.009995 217.619995 L 170.600006 216.720001 L 170.419998 215.779999 C 169.891403 214.323639 169.766998 212.751343 170.059998 211.230011 C 171.326675 210.350006 172.566666 209.440002 173.779999 208.5 C 175.328598 208.508698 176.835678 209.00174 178.089996 209.910004 L 179 210.440002 L 180.460007 209.339996 L 180.169998 208.429993 C 179.46019 207.04837 179.138763 205.499969 179.240005 203.950012 C 180.380005 202.92334 181.496658 201.869995 182.589996 200.790009 C 184.12677 200.604187 185.683121 200.904938 187.039993 201.649994 L 188.039993 202.059998 L 189.350006 200.790009 L 188.949997 199.929993 C 188.075943 198.649902 187.564529 197.157166 187.470001 195.609985 C 188.476669 194.443329 189.456665 193.253326 190.410004 192.040009 C 191.907944 191.668549 193.484451 191.773407 194.919998 192.339996 L 195.919998 192.619995 L 197.059998 191.200012 L 196.550003 190.399994 C 195.529663 189.23999 194.83902 187.827606 194.550003 186.309998 C 195.410004 185.023331 196.236664 183.71666 197.029999 182.389984 C 198.467026 181.840088 200.0392 181.749268 201.529999 182.130005 L 202.529999 182.279999 L 203.529999 180.730011 L 202.919998 180 C 201.761093 178.980347 200.897629 177.667877 200.419998 176.200012 C 201.08667 174.813339 201.753326 173.406677 202.419998 171.980011 C 203.773315 171.256805 205.317337 170.970367 206.839996 171.160004 L 207.889999 171.160004 L 208.639999 169.5 L 207.949997 168.850006 C 206.656036 167.992889 205.619141 166.800446 204.949997 165.399994 C 205.463333 163.93335 205.940002 162.453339 206.380005 160.960007 C 207.632523 160.076645 209.127304 159.601654 210.660004 159.600006 L 211.660004 159.490005 L 212.199997 157.740005 L 211.429993 157.180008 C 210.051086 156.482849 208.886566 155.425461 208.059998 154.12001 C 208.37999 152.613342 208.66333 151.093338 208.910004 149.560013 C 210.042999 148.515701 211.471954 147.848389 213 147.650009 L 214 147.410004 L 214.320007 145.610001 L 213.490005 145.150009 C 212.02887 144.626862 210.736526 143.718079 209.75 142.520004 C 209.876663 141 209.966675 139.470001 210.020004 137.930008 C 211.030823 136.721725 212.400436 135.867035 213.929993 135.490005 Z"/>
                <path id="path2" fill="#3498db" stroke="none" d="M 164.080002 36.399994 C 161.774139 36.611908 159.503464 37.109039 157.320007 37.880005 L 147.380005 17.070007 L 147.380005 17.070007 L 143.37999 8.73999 L 152.470001 5.549988 C 154.005356 5.011536 154.813477 3.330353 154.274994 1.795013 C 153.736526 0.259644 152.055359 -0.548492 150.520004 -0.01001 L 138.330002 4.269989 C 137.554977 4.550293 136.932541 5.141968 136.613403 5.901825 C 136.294266 6.661682 136.307541 7.520386 136.649994 8.269989 L 140.649994 16.73999 L 99.43 35.410004 L 93.360001 23.700012 L 99.919998 23.089996 C 101.538193 22.940887 102.729118 21.508209 102.580002 19.890015 C 102.430885 18.27182 100.998192 17.080872 99.379997 17.230011 L 88.529999 18.230011 L 88.459999 18.230011 L 80.659996 18.950012 C 79.041801 19.099121 77.850883 20.531799 78 22.149994 C 78.149117 23.768188 79.581802 24.959106 81.199997 24.809998 L 87 24.290009 L 94.650002 39.050003 L 87.32 48.889999 C 76.416588 42.438843 62.539978 44.112595 53.4832 52.971298 C 44.426418 61.830002 42.446259 75.666214 48.654774 86.709595 C 54.863289 97.752975 67.713409 103.251709 79.988594 100.117722 C 92.263771 96.983749 100.905243 85.997986 101.059998 73.330002 L 113.660004 72.160004 L 113.879997 72.160004 C 114.806633 72.067825 115.637932 71.550583 116.129997 70.759995 L 144.339996 24.420013 L 151.990005 40.419998 C 139.855103 47.844452 135.216232 63.188232 141.205261 76.092087 C 147.194305 88.995941 161.907425 95.357925 175.411179 90.882782 C 188.914917 86.407639 196.916641 72.51796 194.014023 58.591263 C 191.11142 44.664566 178.227173 35.12796 164.059998 36.420013 Z M 75.080002 95 C 65.614563 95.88269 56.643684 90.618774 52.797443 81.925095 C 48.951199 73.23143 51.089867 63.052444 58.109627 56.641785 C 65.129387 50.231125 75.460159 49.022614 83.769997 53.639999 L 70.720001 71.210007 C 70.022202 72.141129 69.939209 73.396194 70.508339 74.411102 C 71.077461 75.42601 72.191605 76.009766 73.349998 75.900009 L 95.169998 73.900009 C 94.690155 84.946442 86.137558 93.947159 75.129997 94.990005 Z M 79.349998 69.430008 L 88.489998 57.160004 C 91.525391 60.114059 93.643517 63.881531 94.589996 68.009995 Z M 100.5 67.430008 C 99.340744 61.640442 96.375259 56.367691 92.029999 52.369995 L 97.650002 44.830002 L 109 66.680008 Z M 113.800003 63.180008 L 102.139999 40.639999 L 137.209991 24.809998 Z M 168.669998 86.279999 C 158.54837 87.225433 149.086349 81.147324 145.737717 71.548996 C 142.389069 61.950668 146.01683 51.305832 154.529999 45.75 L 164 65.550003 C 164.701401 67.016312 166.458679 67.636398 167.925003 66.934998 C 169.391312 66.233597 170.011398 64.476318 169.309998 63.009995 L 159.860001 43.229996 C 167.93837 40.610153 176.803421 42.846649 182.672226 48.985123 C 188.541016 55.123611 190.377243 64.080139 187.397339 72.032745 C 184.417419 79.985336 177.147568 85.529739 168.690002 86.300003 Z"/>
            </g>
        </g>
    </g>
</svg>
