<?xml version="1.0" encoding="UTF-8"?>
<!-- Generated by Pixelmator Pro 3.8 -->
<svg width="219" height="213" viewBox="0 0 219 213" xmlns="http://www.w3.org/2000/svg">
    <path id="Path" fill="#000000" stroke="none" d="M 27.212 83 C 18.438999 57.162003 13.963 34.772003 11.971 22.832993 C 26.742001 18.791 62.647999 10.537994 109.231995 10.537994 C 142.595993 10.537994 175.320999 14.723007 206.585999 22.987 C 204.522003 34.972992 199.940994 57.345993 191.138992 83.001007 L 202.242996 83.001007 C 211.822998 54.203995 216.201004 29.895004 217.738998 19.959 L 218.453995 15.339996 L 213.951004 14.087997 C 180.403 4.753006 145.168991 0.018997 109.231995 0.018997 C 55.578999 0.018997 15.536 10.729996 4.541 14.011993 L 0.17 15.317001 L 0.846 19.828995 C 2.328 29.744995 6.585 54.041992 16.122 83 Z"/>
    <path id="path1" fill="#000000" stroke="none" d="M 165.061005 140.332993 C 151.330994 163.395996 133.033005 185.625 109.022995 200.332001 C 85.018997 185.625 66.771996 163.395996 53.107998 140.332993 L 40.976997 140.332993 C 56.181 167.416992 77.375999 194.192993 106.386002 211.003998 L 109.021996 212.530991 L 111.660995 211.003998 C 140.671997 194.192993 161.927994 167.416992 177.209 140.332993 Z"/>
</svg>
