<?xml version="1.0" encoding="UTF-8"?>
<!-- Generated by Pixelmator Pro 3.7 -->
<svg width="147" height="62" viewBox="0 0 147 62" xmlns="http://www.w3.org/2000/svg">
    <g id="Group">
        <path id="Path" fill="#3b97d3" stroke="none" d="M 94.961998 26.823997 L 96.306 26.823997 L 96.306 37.972 L 94.961998 37.972 Z M 96.601997 37.972 L 96.601997 26.823997 L 97.945 26.823997 L 97.945 37.972 Z"/>
        <path id="path1" fill="#3b97d3" stroke="none" d="M 101.470001 37.972 L 100.223999 37.972 L 100.223999 26.675999 C 100.223999 26.577999 100.274002 26.495998 100.453995 26.642998 L 107.486 32.467003 L 107.486 26.825001 L 108.733002 26.825001 L 108.733002 35.070999 L 101.469002 29.119999 L 101.469002 37.972 Z M 102.993996 32.367001 L 102.993996 37.972 L 101.764999 37.972 L 101.764999 29.742001 L 109.028999 35.693001 L 109.028999 26.823997 L 110.257996 26.823997 L 110.257996 38.136002 C 110.257996 38.266998 110.209 38.316002 110.028999 38.168999 Z"/>
        <path id="path2" fill="#3b97d3" stroke="none" d="M 112.470001 26.823997 L 116.781998 26.823997 C 119.994003 26.823997 122.421005 28.938999 122.421005 32.398003 C 122.421005 35.857002 119.994003 37.972 116.781998 37.972 L 112.470001 37.972 Z M 113.813995 36.857002 L 116.617996 36.857002 C 119.207001 36.857002 121.044998 35.152 121.044998 32.398003 C 121.044998 29.645 119.207001 27.939999 116.617996 27.939999 L 113.813995 27.939999 Z M 114.110001 28.235001 L 116.617996 28.235001 C 119.044998 28.235001 120.748993 29.84 120.748993 32.399002 C 120.748993 34.956001 119.044998 36.565002 116.617996 36.565002 L 114.110001 36.565002 Z M 116.453995 35.446999 C 118.259003 35.446999 119.373001 34.25 119.373001 32.398003 C 119.373001 30.546 118.259003 29.348 116.453995 29.348 L 115.455002 29.348 L 115.455002 35.446999 Z"/>
        <path id="path3" fill="#3b97d3" stroke="none" d="M 124.026993 26.823997 L 131.847 26.823997 L 131.847 27.938999 L 125.371002 27.938999 L 125.371002 36.874001 L 132.076996 36.874001 L 132.076996 37.972 L 124.026001 37.972 L 124.026001 26.823997 Z M 131.043991 32.218002 L 125.666992 32.218002 L 125.666992 28.234001 L 131.847 28.234001 L 131.847 29.332001 L 127.011002 29.332001 L 127.011002 31.167 L 131.043991 31.167 Z M 132.078003 36.580002 L 125.667999 36.580002 L 125.667999 32.512001 L 131.044998 32.512001 L 131.044998 33.547001 L 127.011993 33.547001 L 127.011993 35.465004 L 132.078003 35.465004 Z"/>
        <path id="path4" fill="#3b97d3" stroke="none" d="M 133.584 26.823997 L 135.093002 26.823997 L 138.272995 31.907 L 134.354996 37.971001 L 132.977997 37.971001 L 136.830994 31.987 Z M 138.470001 32.169998 L 142.093002 37.973 L 140.617004 37.973 L 138.373001 34.186001 L 136.076004 37.973 L 134.716995 37.973 Z M 135.453995 26.823997 L 136.912003 26.823997 L 138.585999 29.644001 L 140.240005 26.823997 L 141.584991 26.823997 L 138.470993 31.659 Z M 142.470001 37.972 L 138.666 31.908001 L 141.962006 26.825001 L 143.339005 26.825001 L 140.108994 31.858 L 143.945999 37.973 L 142.470001 37.973 Z"/>
        <path id="path5" fill="#3b97d3" stroke="none" d="M 100.612 14.194 L 105.374001 14.194 C 107.553001 14.194 108.955002 15.194 108.955002 17.035999 C 108.955002 18.341999 108.309998 19.069 107.438995 19.391998 C 108.457001 19.681999 109.424995 20.424 109.424995 21.989998 C 109.424995 23.991001 107.953995 25.169998 105.228996 25.169998 L 100.612 25.169998 Z M 104.970001 18.487999 C 105.777 18.487999 106.083 18.117001 106.083 17.504002 C 106.083 16.891998 105.808998 16.502998 105.000999 16.502998 L 103.451996 16.502998 L 103.451996 18.487999 Z M 105.210999 22.862 C 106.165001 22.862 106.486 22.424999 106.486 21.716 C 106.486 21.007 106.146996 20.586998 105.210999 20.586998 L 103.451996 20.586998 L 103.451996 22.862 Z"/>
        <path id="path6" fill="#3b97d3" stroke="none" d="M 111.167 14.194 L 114.104996 14.194 L 114.104996 25.168999 L 111.167 25.168999 Z"/>
        <path id="path7" fill="#3b97d3" stroke="none" d="M 122.643997 14.194 L 125.822998 14.194 L 122.177002 18.955997 L 126.259995 25.169998 L 122.789993 25.169998 L 120.175003 21.184998 L 119.255997 22.313999 L 119.255997 25.169998 L 116.317001 25.169998 L 116.317001 14.194 L 119.255005 14.194 L 119.255005 18.745998 Z"/>
        <path id="path8" fill="#3b97d3" stroke="none" d="M 127.565994 14.194 L 135.266998 14.194 L 135.266998 16.664001 L 130.503998 16.664001 L 130.503998 18.472 L 134.473999 18.472 L 134.473999 20.813 L 130.503998 20.813 L 130.503998 22.702 L 135.490997 22.702 L 135.490997 25.170998 L 127.565002 25.170998 L 127.565002 14.194 Z"/>
        <path id="path9" fill="#3b97d3" stroke="none" d="M 97.345001 25.154999 C 95.132996 18.639 94.002998 12.991001 93.500999 9.979 C 97.226997 8.960999 106.281998 6.877998 118.031006 6.877998 C 126.444 6.877998 134.697998 7.934002 142.582993 10.018002 C 142.063004 13.041 140.908005 18.683998 138.688004 25.154999 L 141.487 25.154999 C 143.903992 17.890999 145.007996 11.759998 145.395996 9.256001 L 145.576996 8.091 L 144.440002 7.775002 C 135.981003 5.421001 127.093994 4.228001 118.031006 4.228001 C 104.499001 4.228001 94.400002 6.927002 91.626999 7.756001 L 90.524002 8.084999 L 90.695 9.223999 C 91.069 11.723999 92.142998 17.851002 94.547997 25.155998 L 97.345001 25.155998 Z"/>
        <path id="path10" fill="#3b97d3" stroke="none" d="M 132.110992 39.612999 C 128.649002 45.429001 124.035004 51.035004 117.977997 54.745998 C 111.923996 51.035004 107.322998 45.43 103.875999 39.612999 L 100.817001 39.612999 C 104.651001 46.445 109.997002 53.196999 117.313004 57.434998 L 117.977005 57.821999 L 118.643005 57.434998 C 125.959 53.196999 131.320999 46.445 135.173996 39.612999 Z"/>
    </g>
    <path id="path11" fill="#2c3e50" stroke="none" d="M 102.628998 51.421997 L -12.891 51.424004 L -12.891 59.814999 L 111.170998 59.814999 C 107.977997 57.362999 105.155998 54.539997 102.628998 51.421997 Z"/>
    <path id="path12" fill="#2c3e50" stroke="none" d="M 97.424995 43.979004 L 90.001999 44 L 90.001999 32.959 L -12.891 32.959 L -12.891 48.364998 L 100.307999 48.364998 C 99.299995 46.949997 98.338997 45.487999 97.424995 43.979004 Z"/>
    <path id="path13" fill="#3b97d3" stroke="none" d="M 89.936996 27.5 C 89.686996 25.721001 88.945 24.000999 88.424995 22.139999 C 87.694 19.522999 87.007996 16.813 86.484001 14.036999 L -12.892 14.036999 L -12.892 29.443001 L 89.937996 29.443001 C 89.901001 28.808998 90.024002 28.134998 89.936996 27.5 Z"/>
    <path id="path14" fill="#3b97d3" stroke="none" d="M 84.936996 4.389999 C 84.936996 4.189999 84.853996 3.979 84.853996 3.778999 C 86.292999 3.328999 87.755997 2.902 89.230995 2.487999 L -12.982 2.488998 L -12.983 10.880001 L 85.921997 10.880001 C 85.555 8.743999 85.292 6.585999 84.936996 4.389999 Z"/>
</svg>
