<?xml version="1.0" encoding="UTF-8"?>
<!-- Generated by Pixelmator Pro 3.7 -->
<svg width="1024" height="1024" viewBox="0 0 1024 1024" xmlns="http://www.w3.org/2000/svg">
    <g id="LIGHT">
        <g id="Group">
            <path id="Path" fill="#3b97d3" stroke="none" d="M 173.721909 495.63446 L 193.502548 495.63446 L 193.502548 659.707764 L 173.721909 659.707764 Z M 197.858948 659.707764 L 197.858948 495.63446 L 217.624893 495.63446 L 217.624893 659.707764 Z"/>
            <path id="path1" fill="#3b97d3" stroke="none" d="M 269.504913 659.707764 L 251.16658 659.707764 L 251.16658 493.456299 C 251.16658 492.013916 251.902527 490.807068 254.551605 492.970581 L 358.046722 578.686646 L 358.046722 495.649231 L 376.39978 495.649231 L 376.39978 617.011597 L 269.490173 529.426453 L 269.490173 659.707764 Z M 291.934662 577.214905 L 291.934662 659.707764 L 273.846619 659.707764 L 273.846619 538.580811 L 380.756165 626.166016 L 380.756165 495.63446 L 398.844208 495.63446 L 398.844208 662.121399 C 398.844208 664.049438 398.123108 664.77063 395.473877 662.607178 Z"/>
            <path id="path2" fill="#3b97d3" stroke="none" d="M 431.399872 495.63446 L 494.862671 495.63446 C 542.136108 495.63446 577.856079 526.762451 577.856079 577.671143 C 577.856079 628.579712 542.136108 659.707764 494.862671 659.707764 L 431.399872 659.707764 Z M 451.18045 643.297485 L 492.448944 643.297485 C 530.553162 643.297485 557.604309 618.203735 557.604309 577.671143 C 557.604309 537.153198 530.553162 512.059509 492.448944 512.059509 L 451.18045 512.059509 Z M 455.536957 516.401245 L 492.448944 516.401245 C 528.168884 516.401245 553.247803 540.023193 553.247803 577.685913 C 553.247803 615.319092 528.168884 638.999878 492.448944 638.999878 L 455.536957 638.999878 Z M 490.035217 622.545532 C 516.600769 622.545532 532.996399 604.928345 532.996399 577.671143 C 532.996399 550.41394 516.600769 532.782043 490.035217 532.782043 L 475.332306 532.782043 L 475.332306 622.545532 Z"/>
            <path id="path3" fill="#3b97d3" stroke="none" d="M 601.492493 495.63446 L 716.585266 495.63446 L 716.585266 512.0448 L 621.273254 512.0448 L 621.273254 643.547607 L 719.970276 643.547607 L 719.970276 659.707764 L 601.477905 659.707764 L 601.477905 495.63446 Z M 704.766785 575.021973 L 625.629578 575.021973 L 625.629578 516.386475 L 716.585266 516.386475 L 716.585266 532.546631 L 645.410339 532.546631 L 645.410339 559.55365 L 704.766785 559.55365 Z M 719.985046 639.220703 L 625.644409 639.220703 L 625.644409 579.348938 L 704.781616 579.348938 L 704.781616 594.581787 L 645.424927 594.581787 L 645.424927 622.810425 L 719.985046 622.810425 Z"/>
            <path id="path4" fill="#3b97d3" stroke="none" d="M 742.149963 495.63446 L 764.359009 495.63446 L 811.161316 570.444702 L 753.497253 659.692993 L 733.230957 659.692993 L 789.938354 571.622192 Z M 814.06073 574.315491 L 867.383118 659.722534 L 845.65979 659.722534 L 812.633118 603.98645 L 778.826599 659.722534 L 758.825073 659.722534 Z M 769.671997 495.63446 L 791.130554 495.63446 L 815.767944 537.13855 L 840.111206 495.63446 L 859.906311 495.63446 L 814.075317 566.794678 Z M 872.931702 659.707764 L 816.945435 570.459473 L 865.455139 495.649231 L 885.721375 495.649231 L 838.182983 569.723511 L 894.655029 659.722534 L 872.931702 659.722534 Z"/>
            <path id="path5" fill="#3b97d3" stroke="none" d="M 256.877075 309.749634 L 326.962891 309.749634 C 359.032837 309.749634 379.667084 324.467407 379.667084 351.577393 C 379.667084 370.798706 370.174103 381.498596 357.354919 386.252319 C 372.337646 390.520508 386.584351 401.441101 386.584351 424.489014 C 386.584351 453.939209 364.93454 471.291382 324.828766 471.291382 L 256.877075 471.291382 Z M 321.016937 372.947571 C 332.894135 372.947571 337.397736 367.487305 337.397736 358.465332 C 337.397736 349.458069 333.365082 343.732849 321.473175 343.732849 L 298.675354 343.732849 L 298.675354 372.947571 Z M 324.563873 437.322876 C 338.604614 437.322876 343.32901 430.891235 343.32901 420.456421 C 343.32901 410.021484 338.33963 403.840027 324.563873 403.840027 L 298.675354 403.840027 L 298.675354 437.322876 Z"/>
            <path id="path6" fill="#3b97d3" stroke="none" d="M 412.222687 309.749634 L 455.463287 309.749634 L 455.463287 471.276672 L 412.222687 471.276672 Z"/>
            <path id="path7" fill="#3b97d3" stroke="none" d="M 581.138 309.749634 L 627.925659 309.749634 L 574.264832 379.835388 L 634.357239 471.291382 L 583.286743 471.291382 L 544.799988 412.641235 L 531.274353 429.257568 L 531.274353 471.291382 L 488.018982 471.291382 L 488.018982 309.749634 L 531.259705 309.749634 L 531.259705 376.74469 Z"/>
            <path id="path8" fill="#3b97d3" stroke="none" d="M 653.578613 309.749634 L 766.9198 309.749634 L 766.9198 346.102478 L 696.819336 346.102478 L 696.819336 372.712036 L 755.248657 372.712036 L 755.248657 407.16626 L 696.819336 407.16626 L 696.819336 434.968018 L 770.216614 434.968018 L 770.216614 471.306091 L 653.564026 471.306091 L 653.564026 309.749634 Z"/>
            <path id="path9" fill="#3b97d3" stroke="none" d="M 208.794296 471.070618 C 176.238586 375.169922 159.607605 292.04425 152.219315 247.714417 C 207.057541 232.731812 340.326569 202.074707 513.245239 202.074707 C 637.065369 202.074707 758.545471 217.616699 874.594604 248.288452 C 866.941589 292.780151 849.942627 375.832214 817.269226 471.070618 L 858.464111 471.070618 C 894.036743 364.161072 910.285156 273.926697 915.995667 237.073547 L 918.659546 219.927368 L 901.925598 215.276611 C 777.428345 180.631042 646.631775 163.072815 513.245239 163.072815 C 314.0849 163.072815 165.450592 202.795959 124.638298 214.996948 L 108.404686 219.83905 L 110.921387 236.602539 C 116.425819 273.396851 132.23262 363.572388 167.628723 471.085388 L 208.794296 471.085388 Z"/>
            <path id="path10" fill="#3b97d3" stroke="none" d="M 720.470581 683.859497 C 669.518005 769.457764 601.610413 851.965454 512.465027 906.582886 C 423.363953 851.965454 355.647705 769.472534 304.91571 683.859497 L 259.894226 683.859497 C 316.32196 784.411011 395.00296 883.785156 502.677887 946.158813 L 512.450439 951.854553 L 522.252502 946.158813 C 629.927307 883.785156 708.84375 784.411011 765.551025 683.859497 Z"/>
            <g id="Stripes">
                <path id="path11" fill="#2c3e50" stroke="none" d="M 286.562714 857.661133 L -1413.628906 857.690613 L -1413.628906 981.187012 L 412.281494 981.187012 C 365.287811 945.099121 323.754395 903.550964 286.562714 857.661133 Z"/>
                <path id="path12" fill="#2c3e50" stroke="none" d="M 209.971619 748.117188 L 100.721985 748.426208 L 100.721985 585.927795 L -1413.628906 585.927795 L -1413.628906 812.669067 L 252.402878 812.669067 C 237.567352 791.843506 223.42363 770.326172 209.971619 748.117188 Z"/>
            </g>
        </g>
        <path id="path13" fill="#3b97d3" stroke="none" d="M 99.765305 505.583679 C 96.085869 479.400879 85.165359 454.086365 77.512085 426.696655 C 66.753494 388.180359 56.657066 348.295349 48.945065 307.438965 L -1413.643799 307.438965 L -1413.643799 534.180298 L 99.780006 534.180298 C 99.235527 524.849243 101.045822 514.929443 99.765305 505.583679 Z"/>
        <path id="path14" fill="#3b97d3" stroke="none" d="M 26.176672 165.457031 C 26.176672 162.513489 24.955097 159.408081 24.955097 156.464539 C 46.133949 149.841553 67.665947 143.557129 89.374565 137.463928 L -1414.968262 137.478638 L -1414.983032 260.975098 L 40.673637 260.975098 C 35.272282 229.538025 31.401512 197.777161 26.176672 165.457031 Z"/>
    </g>
</svg>
