<?xml version="1.0" encoding="UTF-8"?>
<!-- Generated by Pixelmator Pro 3.7 -->
<svg width="1024" height="1024" viewBox="0 0 1024 1024" xmlns="http://www.w3.org/2000/svg">
    <g id="Group">
        <g id="g1">
            <path id="Path" fill="#2c3e50" stroke="none" d="M 173.360336 452.327515 L 193.124023 452.327515 L 193.124023 616.260193 L 173.360336 616.260193 Z M 197.4767 616.260193 L 197.4767 452.327515 L 217.225708 452.327515 L 217.225708 616.260193 Z"/>
            <path id="path1" fill="#2c3e50" stroke="none" d="M 269.061249 616.260193 L 250.738647 616.260193 L 250.738647 450.151184 C 250.738647 448.710083 251.473953 447.504272 254.120758 449.665894 L 357.527191 535.308533 L 357.527191 452.342285 L 375.864502 452.342285 L 375.864502 573.600647 L 269.046539 486.090515 L 269.046539 616.260193 Z M 291.471771 533.838013 L 291.471771 616.260193 L 273.399231 616.260193 L 273.399231 495.237061 L 380.217163 582.747192 L 380.217163 452.327515 L 398.289703 452.327515 L 398.289703 618.671753 C 398.289703 620.598145 397.569214 621.318726 394.922272 619.157104 Z"/>
            <path id="path2" fill="#2c3e50" stroke="none" d="M 430.817474 452.327515 L 494.225891 452.327515 C 541.458801 452.327515 577.148132 483.428833 577.148132 534.293884 C 577.148132 585.158813 541.458801 616.260193 494.225891 616.260193 L 430.817474 616.260193 Z M 450.581085 599.863953 L 491.814209 599.863953 C 529.885803 599.863953 556.913757 574.791748 556.913757 534.293884 C 556.913757 493.810669 529.885803 468.738464 491.814209 468.738464 L 450.581085 468.738464 Z M 454.933868 473.076477 L 491.814209 473.076477 C 527.50354 473.076477 552.560974 496.678162 552.560974 534.308594 C 552.560974 571.909546 527.50354 595.570068 491.814209 595.570068 L 454.933868 595.570068 Z M 489.402557 579.129761 C 515.945374 579.129761 532.326904 561.52771 532.326904 534.293884 C 532.326904 507.059998 515.945374 489.443237 489.402557 489.443237 L 474.71225 489.443237 L 474.71225 579.129761 Z"/>
            <path id="path3" fill="#2c3e50" stroke="none" d="M 600.764343 452.327515 L 715.758423 452.327515 L 715.758423 468.723755 L 620.528137 468.723755 L 620.528137 600.113892 L 719.140564 600.113892 L 719.140564 616.260193 L 600.749756 616.260193 L 600.749756 452.327515 Z M 703.950073 531.646973 L 624.880737 531.646973 L 624.880737 473.061768 L 715.758423 473.061768 L 715.758423 489.208008 L 644.644531 489.208008 L 644.644531 516.191895 L 703.950073 516.191895 Z M 719.155334 595.790649 L 624.895508 595.790649 L 624.895508 535.970215 L 703.964905 535.970215 L 703.964905 551.190063 L 644.659119 551.190063 L 644.659119 579.39447 L 719.155334 579.39447 Z"/>
            <path id="path4" fill="#2c3e50" stroke="none" d="M 741.301208 452.327515 L 763.491272 452.327515 L 810.253418 527.073608 L 752.638794 616.245422 L 732.389893 616.245422 L 789.048645 528.250061 Z M 813.150391 530.941101 L 866.427063 616.274902 L 844.722351 616.274902 L 811.723999 560.586609 L 777.946411 616.274902 L 757.962036 616.274902 Z M 768.799683 452.327515 L 790.239868 452.327515 L 814.85614 493.796021 L 839.178528 452.327515 L 858.956665 452.327515 L 813.164978 523.426758 Z M 871.970886 616.260193 L 816.032593 527.088379 L 864.500732 452.342285 L 884.749634 452.342285 L 837.251953 526.353088 L 893.675598 616.274902 L 871.970886 616.274902 Z"/>
            <path id="path5" fill="#2c3e50" stroke="none" d="M 256.444244 266.60199 L 326.470001 266.60199 C 358.512451 266.60199 379.129028 281.307129 379.129028 308.393921 C 379.129028 327.598755 369.644165 338.289429 356.835968 343.039124 C 371.805847 347.30365 386.040344 358.214844 386.040344 381.243042 C 386.040344 410.667969 364.409088 428.00531 324.337708 428.00531 L 256.444244 428.00531 Z M 320.529144 329.745728 C 332.396149 329.745728 336.895905 324.290161 336.895905 315.27594 C 336.895905 306.276367 332.866699 300.556091 320.984985 300.556091 L 298.206696 300.556091 L 298.206696 329.745728 Z M 324.073029 394.065918 C 338.101746 394.065918 342.822083 387.639771 342.822083 377.213867 C 342.822083 366.787903 337.836975 360.611755 324.073029 360.611755 L 298.206696 360.611755 L 298.206696 394.065918 Z"/>
            <path id="path6" fill="#2c3e50" stroke="none" d="M 411.656708 266.60199 L 454.86026 266.60199 L 454.86026 427.990601 L 411.656708 427.990601 Z"/>
            <path id="path7" fill="#2c3e50" stroke="none" d="M 580.427246 266.60199 L 627.174805 266.60199 L 573.559998 336.627686 L 633.600891 428.00531 L 582.574158 428.00531 L 544.120422 369.405396 L 530.606323 386.007507 L 530.606323 428.00531 L 487.388062 428.00531 L 487.388062 266.60199 L 530.591736 266.60199 L 530.591736 333.539612 Z"/>
            <path id="path8" fill="#2c3e50" stroke="none" d="M 652.805786 266.60199 L 766.049866 266.60199 L 766.049866 302.923645 L 696.00946 302.923645 L 696.00946 329.510437 L 754.388733 329.510437 L 754.388733 363.93512 L 696.00946 363.93512 L 696.00946 391.713074 L 769.343811 391.713074 L 769.343811 428.019958 L 652.791199 428.019958 L 652.791199 266.60199 Z"/>
            <path id="path9" fill="#2c3e50" stroke="none" d="M 208.402664 427.784729 C 175.874863 331.966187 159.258133 248.911743 151.876175 204.619934 C 206.667404 189.650146 339.822205 159.019348 512.592712 159.019348 C 636.306702 159.019348 757.682678 174.548035 873.632385 205.193481 C 865.985901 249.647034 849.001526 332.62793 816.35614 427.784729 L 857.515686 427.784729 C 893.057861 320.966797 909.292358 230.809753 914.997925 193.988159 L 917.659546 176.856689 L 900.939941 172.2099 C 776.549377 137.594055 645.864929 120.050842 512.592712 120.050842 C 313.603027 120.050842 165.096115 159.73999 124.318794 171.930481 L 108.099098 176.768433 L 110.61364 193.517578 C 116.113358 230.280334 131.906616 320.378601 167.272385 427.799438 L 208.402664 427.799438 Z"/>
            <path id="path10" fill="#2c3e50" stroke="none" d="M 719.640442 640.391235 C 668.731506 725.916138 600.882141 808.353088 511.813171 862.923706 C 422.788422 808.353088 355.130219 725.930908 304.441711 640.391235 L 259.458801 640.391235 C 315.838196 740.856567 394.451752 840.145508 502.034393 902.465759 L 511.798584 908.156616 L 521.592224 902.465759 C 629.174744 840.145508 708.02356 740.856567 764.682251 640.391235 Z"/>
            <path id="path11" fill="#2c3e50" stroke="none" d="M 286.104431 814.043884 L -1412.630127 814.073364 L -1412.630127 937.463928 L 411.715485 937.463928 C 364.762054 901.406982 323.264252 859.894409 286.104431 814.043884 Z"/>
            <path id="path12" fill="#2c3e50" stroke="none" d="M 209.578979 704.593811 L 100.422981 704.902588 L 100.422981 542.543457 L -1412.630127 542.543457 L -1412.630127 769.090393 L 251.973877 769.090393 C 237.151062 748.282654 223.01947 726.783813 209.578979 704.593811 Z"/>
        </g>
        <path id="path13" fill="#3b97d3" stroke="none" d="M 99.467117 462.268188 C 95.79084 436.107849 84.879692 410.815002 77.232971 383.448792 C 66.483604 344.965515 56.395828 305.114685 48.690434 264.293274 L -1412.644897 264.293274 L -1412.644897 490.840271 L 99.481812 490.840271 C 98.937798 481.517212 100.746544 471.605957 99.467117 462.268188 Z"/>
        <path id="path14" fill="#3b97d3" stroke="none" d="M 25.941555 122.433044 C 25.941555 119.492004 24.721027 116.389282 24.721027 113.448242 C 45.881729 106.830933 67.395271 100.55188 89.085289 94.463928 L -1413.968262 94.478638 L -1413.983032 217.869263 L 40.426098 217.869263 C 35.029369 186.459106 31.161919 154.725464 25.941555 122.433044 Z"/>
    </g>
</svg>
