<?xml version="1.0" encoding="UTF-8"?>
<!-- Generated by Pixelmator Pro 3.7 -->
<svg width="1024" height="1024" viewBox="0 0 1024 1024" xmlns="http://www.w3.org/2000/svg">
    <g id="Group">
        <g id="g1">
            <path id="Path" fill="#2c3e50" stroke="none" d="M 173.360336 495.327515 L 193.124023 495.327515 L 193.124023 659.260193 L 173.360336 659.260193 Z M 197.4767 659.260193 L 197.4767 495.327515 L 217.225708 495.327515 L 217.225708 659.260193 Z"/>
            <path id="path1" fill="#2c3e50" stroke="none" d="M 269.061249 659.260193 L 250.738647 659.260193 L 250.738647 493.151184 C 250.738647 491.710083 251.473953 490.504272 254.120758 492.665894 L 357.527191 578.308533 L 357.527191 495.342285 L 375.864502 495.342285 L 375.864502 616.600647 L 269.046539 529.090515 L 269.046539 659.260193 Z M 291.471771 576.838013 L 291.471771 659.260193 L 273.399231 659.260193 L 273.399231 538.237061 L 380.217163 625.747192 L 380.217163 495.327515 L 398.289703 495.327515 L 398.289703 661.671753 C 398.289703 663.598145 397.569214 664.318726 394.922272 662.157104 Z"/>
            <path id="path2" fill="#2c3e50" stroke="none" d="M 430.817474 495.327515 L 494.225891 495.327515 C 541.458801 495.327515 577.148132 526.428833 577.148132 577.293884 C 577.148132 628.158813 541.458801 659.260193 494.225891 659.260193 L 430.817474 659.260193 Z M 450.581085 642.863953 L 491.814209 642.863953 C 529.885803 642.863953 556.913757 617.791748 556.913757 577.293884 C 556.913757 536.810669 529.885803 511.738464 491.814209 511.738464 L 450.581085 511.738464 Z M 454.933868 516.076477 L 491.814209 516.076477 C 527.50354 516.076477 552.560974 539.678162 552.560974 577.308594 C 552.560974 614.909546 527.50354 638.570068 491.814209 638.570068 L 454.933868 638.570068 Z M 489.402557 622.129761 C 515.945374 622.129761 532.326904 604.52771 532.326904 577.293884 C 532.326904 550.059998 515.945374 532.443237 489.402557 532.443237 L 474.71225 532.443237 L 474.71225 622.129761 Z"/>
            <path id="path3" fill="#2c3e50" stroke="none" d="M 600.764343 495.327515 L 715.758423 495.327515 L 715.758423 511.723755 L 620.528137 511.723755 L 620.528137 643.113892 L 719.140564 643.113892 L 719.140564 659.260193 L 600.749756 659.260193 L 600.749756 495.327515 Z M 703.950073 574.646973 L 624.880737 574.646973 L 624.880737 516.061768 L 715.758423 516.061768 L 715.758423 532.208008 L 644.644531 532.208008 L 644.644531 559.191895 L 703.950073 559.191895 Z M 719.155334 638.790649 L 624.895508 638.790649 L 624.895508 578.970215 L 703.964905 578.970215 L 703.964905 594.190063 L 644.659119 594.190063 L 644.659119 622.39447 L 719.155334 622.39447 Z"/>
            <path id="path4" fill="#2c3e50" stroke="none" d="M 741.301208 495.327515 L 763.491272 495.327515 L 810.253418 570.073608 L 752.638794 659.245422 L 732.389893 659.245422 L 789.048645 571.250061 Z M 813.150391 573.941101 L 866.427063 659.274902 L 844.722351 659.274902 L 811.723999 603.586609 L 777.946411 659.274902 L 757.962036 659.274902 Z M 768.799683 495.327515 L 790.239868 495.327515 L 814.85614 536.796021 L 839.178528 495.327515 L 858.956665 495.327515 L 813.164978 566.426758 Z M 871.970886 659.260193 L 816.032593 570.088379 L 864.500732 495.342285 L 884.749634 495.342285 L 837.251953 569.353088 L 893.675598 659.274902 L 871.970886 659.274902 Z"/>
            <path id="path5" fill="#2c3e50" stroke="none" d="M 256.444244 309.60199 L 326.470001 309.60199 C 358.512451 309.60199 379.129028 324.307129 379.129028 351.393921 C 379.129028 370.598755 369.644165 381.289429 356.835968 386.039124 C 371.805847 390.30365 386.040344 401.214844 386.040344 424.243042 C 386.040344 453.667969 364.409088 471.00531 324.337708 471.00531 L 256.444244 471.00531 Z M 320.529144 372.745728 C 332.396149 372.745728 336.895905 367.290161 336.895905 358.27594 C 336.895905 349.276367 332.866699 343.556091 320.984985 343.556091 L 298.206696 343.556091 L 298.206696 372.745728 Z M 324.073029 437.065918 C 338.101746 437.065918 342.822083 430.639771 342.822083 420.213867 C 342.822083 409.787903 337.836975 403.611755 324.073029 403.611755 L 298.206696 403.611755 L 298.206696 437.065918 Z"/>
            <path id="path6" fill="#2c3e50" stroke="none" d="M 411.656708 309.60199 L 454.86026 309.60199 L 454.86026 470.990601 L 411.656708 470.990601 Z"/>
            <path id="path7" fill="#2c3e50" stroke="none" d="M 580.427246 309.60199 L 627.174805 309.60199 L 573.559998 379.627686 L 633.600891 471.00531 L 582.574158 471.00531 L 544.120422 412.405396 L 530.606323 429.007507 L 530.606323 471.00531 L 487.388062 471.00531 L 487.388062 309.60199 L 530.591736 309.60199 L 530.591736 376.539612 Z"/>
            <path id="path8" fill="#2c3e50" stroke="none" d="M 652.805786 309.60199 L 766.049866 309.60199 L 766.049866 345.923645 L 696.00946 345.923645 L 696.00946 372.510437 L 754.388733 372.510437 L 754.388733 406.93512 L 696.00946 406.93512 L 696.00946 434.713074 L 769.343811 434.713074 L 769.343811 471.019958 L 652.791199 471.019958 L 652.791199 309.60199 Z"/>
            <path id="path9" fill="#2c3e50" stroke="none" d="M 208.402664 470.784729 C 175.874863 374.966187 159.258133 291.911743 151.876175 247.619934 C 206.667404 232.650146 339.822205 202.019348 512.592712 202.019348 C 636.306702 202.019348 757.682678 217.548035 873.632385 248.193481 C 865.985901 292.647034 849.001526 375.62793 816.35614 470.784729 L 857.515686 470.784729 C 893.057861 363.966797 909.292358 273.809753 914.997925 236.988159 L 917.659546 219.856689 L 900.939941 215.2099 C 776.549377 180.594055 645.864929 163.050842 512.592712 163.050842 C 313.603027 163.050842 165.096115 202.73999 124.318794 214.930481 L 108.099098 219.768433 L 110.61364 236.517578 C 116.113358 273.280334 131.906616 363.378601 167.272385 470.799438 L 208.402664 470.799438 Z"/>
            <path id="path10" fill="#2c3e50" stroke="none" d="M 719.640442 683.391235 C 668.731506 768.916138 600.882141 851.353088 511.813171 905.923706 C 422.788422 851.353088 355.130219 768.930908 304.441711 683.391235 L 259.458801 683.391235 C 315.838196 783.856567 394.451752 883.145508 502.034393 945.465759 L 511.798584 951.156616 L 521.592224 945.465759 C 629.174744 883.145508 708.02356 783.856567 764.682251 683.391235 Z"/>
            <path id="path11" fill="#2c3e50" stroke="none" d="M 286.104431 857.043884 L -1412.630127 857.073364 L -1412.630127 980.463928 L 411.715485 980.463928 C 364.762054 944.406982 323.264252 902.894409 286.104431 857.043884 Z"/>
            <path id="path12" fill="#2c3e50" stroke="none" d="M 209.578979 747.593811 L 100.422981 747.902588 L 100.422981 585.543457 L -1412.630127 585.543457 L -1412.630127 812.090393 L 251.973877 812.090393 C 237.151062 791.282654 223.01947 769.783813 209.578979 747.593811 Z"/>
        </g>
        <path id="path13" fill="#3b97d3" stroke="none" d="M 99.467117 505.268188 C 95.79084 479.107849 84.879692 453.815002 77.232971 426.448792 C 66.483604 387.965515 56.395828 348.114685 48.690434 307.293274 L -1412.644897 307.293274 L -1412.644897 533.840271 L 99.481812 533.840271 C 98.937798 524.517212 100.746544 514.605957 99.467117 505.268188 Z"/>
        <path id="path14" fill="#3b97d3" stroke="none" d="M 25.941555 165.433044 C 25.941555 162.492004 24.721027 159.389282 24.721027 156.448242 C 45.881729 149.830933 67.395271 143.55188 89.085289 137.463928 L -1413.968262 137.478638 L -1413.983032 260.869263 L 40.426098 260.869263 C 35.029369 229.459106 31.161919 197.725464 25.941555 165.433044 Z"/>
    </g>
</svg>
