<?xml version="1.0" encoding="UTF-8"?>
<!-- Generated by Pixelmator Pro 3.7 -->
<svg width="1024" height="1024" viewBox="0 0 1024 1024" xmlns="http://www.w3.org/2000/svg">
    <g id="Group-copy">
        <g id="Group">
            <path id="Path" fill="#ffffff" stroke="none" d="M 172.310547 495.256409 L 192.076035 495.256409 L 192.076035 659.238525 L 172.310547 659.238525 Z M 196.428192 659.238525 L 196.428192 495.256409 L 216.186172 495.256409 L 216.186172 659.238525 Z"/>
            <path id="path1" fill="#ffffff" stroke="none" d="M 268.035767 659.238525 L 249.708435 659.238525 L 249.708435 493.072815 C 249.708435 491.634705 250.438828 490.429871 253.096817 492.583435 L 356.539978 578.248901 L 356.539978 495.256409 L 374.882355 495.256409 L 374.882355 616.545044 L 268.035767 529.012146 Z M 290.444183 576.788147 L 290.444183 659.238525 L 272.372864 659.238525 L 272.372864 538.175781 L 379.219482 625.708679 L 379.219482 495.256409 L 397.290802 495.256409 L 397.290802 661.655518 C 397.290802 663.575562 396.57547 664.298462 393.932526 662.137451 Z"/>
            <path id="path2" fill="#ffffff" stroke="none" d="M 429.841705 495.256409 L 493.279541 495.256409 C 540.520935 495.256409 576.226807 526.369202 576.226807 577.247437 C 576.226807 628.125732 540.528503 659.238525 493.279541 659.238525 L 429.841705 659.238525 Z M 449.607208 642.831299 L 490.85498 642.831299 C 528.932739 642.831299 555.964417 617.749756 555.964417 577.247437 C 555.964417 536.745178 528.932739 511.663696 490.85498 511.663696 L 449.607208 511.663696 Z M 453.966919 516.000793 L 490.85498 516.000793 C 526.553345 516.000793 551.619751 539.613953 551.619751 577.247437 C 551.619751 614.858398 526.553345 638.524231 490.85498 638.524231 L 453.966919 638.524231 Z M 488.437958 622.086914 C 514.987671 622.086914 531.379883 604.482422 531.379883 577.239929 C 531.379883 549.997437 514.987671 532.370361 488.437958 532.370361 L 473.73996 532.370361 L 473.73996 622.086914 Z"/>
            <path id="path3" fill="#ffffff" stroke="none" d="M 599.840027 495.256409 L 714.871399 495.256409 L 714.871399 511.663696 L 619.620544 511.663696 L 619.620544 643.102295 L 718.267273 643.102295 L 718.267273 659.246033 L 599.840027 659.246033 Z M 703.064819 574.604553 L 623.972717 574.604553 L 623.972717 516.000793 L 714.871399 516.000793 L 714.871399 532.144531 L 643.73822 532.144531 L 643.73822 559.145996 L 703.064819 559.145996 Z M 718.267273 638.75769 L 623.972717 638.75769 L 623.972717 578.911499 L 703.064819 578.911499 L 703.064819 594.136597 L 643.73822 594.136597 L 643.73822 622.350464 L 718.259766 622.350464 L 718.259766 638.75769 Z"/>
            <path id="path4" fill="#ffffff" stroke="none" d="M 740.434753 495.256409 L 762.624878 495.256409 L 809.399414 570.033997 L 751.767029 659.238525 L 731.512085 659.238525 L 788.180664 571.216187 Z M 812.29834 573.881714 L 865.593628 659.230957 L 843.870422 659.230957 L 810.860168 603.526123 L 777.074341 659.230957 L 757.075439 659.230957 Z M 767.92572 495.256409 L 789.370361 495.256409 L 813.992554 536.745178 L 838.328552 495.256409 L 858.109131 495.256409 L 812.29834 566.38208 Z M 871.135498 659.238525 L 815.18219 570.033997 L 863.658508 495.256409 L 883.913391 495.256409 L 836.393433 569.288574 L 892.836121 659.238525 Z"/>
            <path id="path5" fill="#ffffff" stroke="none" d="M 255.408417 309.460815 L 325.449829 309.460815 C 357.496277 309.460815 378.127655 324.173889 378.127655 351.265747 C 378.127655 370.47406 368.647766 381.173767 355.832214 385.932556 C 370.80127 390.194397 385.055023 401.119995 385.055023 424.145813 C 385.055023 453.579529 363.42215 470.912903 323.326416 470.912903 L 255.408417 470.912903 Z M 319.523926 372.620056 C 331.390747 372.620056 335.901062 367.16095 335.901062 358.140381 C 335.901062 349.134888 331.865112 343.412292 319.983246 343.412292 L 297.205872 343.412292 L 297.205872 372.612549 L 319.523926 372.612549 Z M 323.070404 436.961426 C 337.105804 436.961426 341.834473 430.538574 341.834473 420.09491 C 341.834473 409.666199 336.849792 403.484314 323.070404 403.484314 L 297.198334 403.484314 L 297.198334 436.953918 L 323.070404 436.953918 Z"/>
            <path id="path6" fill="#ffffff" stroke="none" d="M 410.686157 309.460815 L 453.891632 309.460815 L 453.891632 470.905334 L 410.686157 470.905334 Z"/>
            <path id="path7" fill="#ffffff" stroke="none" d="M 579.494751 309.460815 L 626.254272 309.460815 L 572.61261 379.502197 L 632.677063 470.905334 L 581.640686 470.905334 L 543.171387 412.279053 L 529.655579 428.889587 L 529.655579 470.905334 L 486.42749 470.905334 L 486.42749 309.460815 L 529.655579 309.460815 L 529.655579 376.415039 Z"/>
            <path id="path8" fill="#ffffff" stroke="none" d="M 651.900452 309.460815 L 765.184937 309.460815 L 765.184937 345.791687 L 695.128479 345.791687 L 695.128479 372.379089 L 753.521423 372.379089 L 753.521423 406.8125 L 695.128479 406.8125 L 695.128479 434.589539 L 768.490479 434.589539 L 768.490479 470.905334 L 651.900452 470.905334 Z"/>
        </g>
        <g id="g1">
            <path id="path9" fill="#3498db" stroke="none" d="M 207.361359 470.694519 C 174.825455 374.848816 158.207397 291.765991 150.82074 247.461182 C 205.621979 232.492126 338.830109 201.85376 511.652039 201.85376 C 635.410339 201.85376 756.819397 217.380005 872.799561 248.033447 C 865.156921 292.511414 848.162354 375.511414 815.513489 470.694519 L 856.685974 470.694519 C 892.241272 363.847961 908.482849 273.664551 914.190369 236.814148 L 916.848389 219.676514 L 900.124878 215.023193 C 775.696411 180.409119 644.973145 162.849854 511.652039 162.849854 C 312.596588 162.849854 164.050446 202.553955 123.246941 214.752136 L 107.027946 219.593689 L 109.54287 236.347351 C 115.039558 273.122437 130.844421 363.253052 166.211472 470.702026 L 207.361359 470.702026 Z"/>
            <path id="path10" fill="#3498db" stroke="none" d="M 718.756714 683.371216 C 667.833313 768.931274 599.960449 851.381714 510.868958 905.972046 C 421.822601 851.381714 354.138 768.931274 303.44046 683.371216 L 258.450439 683.371216 C 314.847961 783.870239 393.480743 883.187134 501.102905 945.533142 L 510.868958 951.218079 L 520.6651 945.533142 C 628.287231 883.187134 707.153442 783.862732 763.837097 683.371216 Z"/>
        </g>
    </g>
</svg>
