<?xml version="1.0" encoding="UTF-8"?>
<!-- Generated by Pixelmator Pro 3.8 -->
<svg width="119" height="40" viewBox="0 0 119 40" xmlns="http://www.w3.org/2000/svg">
    <g id="Rounded-Rectangle">
        <linearGradient id="linearGradient1" x1="0" y1="20" x2="119" y2="20" gradientUnits="userSpaceOnUse">
            <stop offset="0" stop-color="#00ff6f" stop-opacity="1"/>
            <stop offset="1" stop-color="#0078ff" stop-opacity="1"/>
        </linearGradient>
        <path id="path1" fill="url(#linearGradient1)" fill-rule="evenodd" stroke="none" d="M 0 33 C -0 36.865993 3.134007 40 7 40 L 112 40 C 115.86599 40 119 36.865993 119 33 L 119 7 C 119 3.134007 115.86599 0 112 0 L 7 0 C 3.134007 0 0 3.134007 0 7 Z"/>
        <path id="path2" fill="#ffffff" fill-rule="evenodd" stroke="none" d="M 7 40 C 3.134007 40 0 36.865993 0 33 L 0 7 C 0 3.134007 3.134007 0 7 0 L 112 0 C 115.86599 0 119 3.134007 119 7 L 119 33 C 119 36.865993 115.86599 40 112 40 L 7 40 Z M 1 33 L 1 7 C 1 3.686291 3.686291 1 7 1 L 112 1 C 115.313705 1 118 3.686293 118 7 L 118 33 C 118 36.313705 115.313705 39 112 39 L 7 39 C 3.686291 39 1 36.313709 1 33 Z"/>
    </g>
    <text id="Try-the-newest-beta" xml:space="preserve"><tspan x="27" y="19" font-family="Helvetica Neue" font-size="10" font-weight="700" fill="#000000" xml:space="preserve">T</tspan><tspan font-family="Helvetica Neue" font-size="10" font-weight="700" fill="#000000" xml:space="preserve">r</tspan><tspan font-family="Helvetica Neue" font-size="10" font-weight="700" fill="#000000" xml:space="preserve">y</tspan><tspan font-family="Helvetica Neue" font-size="10" font-weight="700" fill="#000000" xml:space="preserve"> th</tspan><tspan font-family="Helvetica Neue" font-size="10" font-weight="700" fill="#000000" xml:space="preserve">e</tspan><tspan font-family="Helvetica Neue" font-size="10" font-weight="700" fill="#000000" xml:space="preserve"> n</tspan><tspan font-family="Helvetica Neue" font-size="10" font-weight="700" fill="#000000" xml:space="preserve">e</tspan><tspan font-family="Helvetica Neue" font-size="10" font-weight="700" fill="#000000" xml:space="preserve">west</tspan><tspan x="27" y="30.09007" font-family="Helvetica Neue" font-size="10" font-weight="700" fill="#000000" xml:space="preserve">bet</tspan><tspan font-family="Helvetica Neue" font-size="10" font-weight="700" fill="#000000" xml:space="preserve">a on TestF</tspan><tspan font-family="Helvetica Neue" font-size="10" font-weight="700" fill="#000000" xml:space="preserve">li</tspan><tspan font-family="Helvetica Neue" font-size="10" font-weight="700" fill="#000000" xml:space="preserve">g</tspan><tspan font-family="Helvetica Neue" font-size="10" font-weight="700" fill="#000000" xml:space="preserve">h</tspan><tspan font-family="Helvetica Neue" font-size="10" font-weight="700" fill="#000000" xml:space="preserve">t</tspan></text>
    <g id="Group">
        <path id="path3" fill="#00a1fe" fill-rule="evenodd" stroke="none" d="M 5 25 C 5 27.761425 7.238576 30 10 30 L 21 30 C 23.761423 30 26 27.761425 26 25 L 26 14 C 26 11.238577 23.761423 9 21 9 L 10 9 C 7.238576 9 5 11.238577 5 14 Z"/>
        <g id="logo-3">
            <path id="Path" fill="#000000" stroke="none" d="M 8.526367 17.927589 L 8.937318 17.927589 L 8.937318 21.335548 L 8.526367 21.335548 Z M 9.027527 21.335548 L 9.027527 17.927589 L 9.438555 17.927589 L 9.438555 21.335548 Z"/>
            <path id="path4" fill="#000000" stroke="none" d="M 10.515969 21.335548 L 10.135088 21.335548 L 10.135088 17.882486 C 10.135088 17.852417 10.150123 17.827358 10.205251 17.872463 L 12.3553 19.651655 L 12.3553 17.927589 L 12.73618 17.927589 L 12.73618 20.448498 L 10.515969 18.629213 Z M 10.982047 19.621584 L 10.982047 21.335548 L 10.606177 21.335548 L 10.606177 18.819654 L 12.826389 20.638937 L 12.826389 17.927589 L 13.202258 17.927589 L 13.202258 21.385742 C 13.202258 21.425835 13.187223 21.44087 13.132096 21.395844 Z"/>
            <path id="path5" fill="#000000" stroke="none" d="M 13.878669 17.927589 L 15.196795 17.927589 C 16.179066 17.927589 16.920782 18.574085 16.920782 19.631685 C 16.920782 20.689131 16.179066 21.335627 15.196795 21.335627 L 13.878669 21.335627 Z M 14.289697 20.994761 L 15.146679 20.994761 C 15.938587 20.994761 16.499886 20.473555 16.499886 19.631609 C 16.499886 18.789583 15.938587 18.268379 15.146679 18.268379 L 14.289697 18.268379 Z M 14.379906 18.358587 L 15.146679 18.358587 C 15.888472 18.358587 16.409676 18.849724 16.409676 19.631609 C 16.409676 20.413416 15.888472 20.904552 15.146679 20.904552 L 14.379906 20.904552 Z M 15.096562 20.563765 C 15.647838 20.563765 15.988626 20.197918 15.988626 19.631609 C 15.988626 19.065222 15.647838 18.699375 15.096562 18.699375 L 14.790855 18.699375 L 14.790855 20.563765 Z"/>
            <path id="path6" fill="#000000" stroke="none" d="M 17.41184 17.927589 L 19.802446 17.927589 L 19.802446 18.268379 L 17.82279 18.268379 L 17.82279 20.999773 L 19.872608 20.999773 L 19.872608 21.335472 L 17.41184 21.335472 Z M 19.556801 19.576481 L 17.913 19.576481 L 17.913 18.358587 L 19.802446 18.358587 L 19.802446 18.694365 L 18.32395 18.694365 L 18.32395 19.255663 L 19.556801 19.255663 Z M 19.872608 20.909563 L 17.913 20.909563 L 17.913 19.666689 L 19.556801 19.666689 L 19.556801 19.98242 L 18.32395 19.98242 L 18.32395 20.568775 L 19.872608 20.568775 Z"/>
            <path id="path7" fill="#000000" stroke="none" d="M 20.333521 17.927589 L 20.794588 17.927589 L 21.766758 19.481184 L 20.568989 21.335548 L 20.148014 21.335548 L 21.325815 19.506241 Z M 21.827129 19.561445 L 22.93469 21.335548 L 22.48357 21.335548 L 21.796982 20.177795 L 21.095358 21.335548 L 20.679319 21.335548 Z M 20.904919 17.927589 L 21.35095 17.927589 L 21.862211 18.789583 L 22.368303 17.927589 L 22.779255 17.927589 L 21.827051 19.406086 Z M 23.049879 21.335548 L 21.88719 19.481184 L 22.894598 17.927589 L 23.315495 17.927589 L 22.328211 19.466148 L 23.500999 21.335548 Z"/>
            <path id="path8" fill="#000000" stroke="none" d="M 10.253439 14.066431 L 11.708959 14.066431 C 12.375115 14.066431 12.804338 14.372368 12.804338 14.9349 C 12.804338 15.334595 12.606958 15.556568 12.340496 15.655258 C 12.651369 15.74408 12.947438 15.971066 12.947438 16.449633 C 12.947438 17.061434 12.4984 17.421652 11.664548 17.421652 L 10.253439 17.421652 Z M 11.585673 15.378927 C 11.832398 15.378927 11.926153 15.265434 11.926153 15.077923 C 11.926153 14.890413 11.842267 14.771984 11.595543 14.771984 L 11.121832 14.771984 L 11.121832 15.378927 Z M 11.659614 16.716097 C 11.950672 16.716097 12.049438 16.582865 12.049438 16.365826 C 12.049438 16.148706 11.945814 16.020411 11.659614 16.020411 L 11.121755 16.020411 L 11.121755 16.716097 Z"/>
            <path id="path9" fill="#000000" stroke="none" d="M 13.480595 14.066431 L 14.378518 14.066431 L 14.378518 17.421652 L 13.480595 17.421652 Z"/>
            <path id="path10" fill="#000000" stroke="none" d="M 16.988861 14.066431 L 17.960802 14.066431 L 16.845684 15.522028 L 18.094034 17.421652 L 17.033195 17.421652 L 16.233885 16.202909 L 15.95262 16.548246 L 15.95262 17.421574 L 15.054697 17.421574 L 15.054697 14.066431 L 15.95262 14.066431 L 15.95262 15.457878 Z"/>
            <path id="path11" fill="#000000" stroke="none" d="M 18.493959 14.066431 L 20.847479 14.066431 L 20.847479 14.821407 L 19.391882 14.821407 L 19.391882 15.373993 L 20.605688 15.373993 L 20.605688 16.089417 L 19.391882 16.089417 L 19.391882 16.666674 L 20.916485 16.666674 L 20.916485 17.421652 L 18.493881 17.421652 L 18.493881 14.066431 Z"/>
            <path id="path12" fill="#000000" stroke="none" d="M 9.254976 17.416948 C 8.578566 15.424803 8.233459 13.698502 8.079873 12.777988 C 9.218739 12.466345 11.987141 11.830027 15.578832 11.830027 C 18.151243 11.830027 20.674385 12.152697 23.084961 12.789862 C 22.925823 13.713999 22.572622 15.438988 21.893974 17.417027 L 22.750109 17.417027 C 23.488741 15.196735 23.826292 13.322479 23.944872 12.556398 L 24 12.200268 L 23.652813 12.103737 C 21.066216 11.383995 18.349625 11.018997 15.578832 11.018997 C 11.442111 11.018997 8.35474 11.84483 7.50701 12.097878 L 7.17 12.198494 L 7.222121 12.546375 C 7.336385 13.310913 7.664606 15.184246 8.399921 17.416948 Z"/>
            <path id="path13" fill="#000000" stroke="none" d="M 19.883326 21.837402 C 18.824722 23.615591 17.413923 25.329479 15.562717 26.463409 C 13.711976 25.329479 12.305106 23.615591 11.251594 21.837402 L 10.316277 21.837402 C 11.488526 23.925615 13.12269 25.990082 15.359402 27.286236 L 15.56264 27.403969 L 15.766111 27.286236 C 18.002899 25.990082 19.641766 23.925615 20.819954 21.837402 Z"/>
        </g>
    </g>
</svg>
