<?xml version="1.0" encoding="UTF-8"?>
<!-- Generated by Pixelmator Pro 3.8 -->
<svg width="119" height="40" viewBox="0 0 119 40" xmlns="http://www.w3.org/2000/svg">
    <g id="Rounded-Rectangle">
        <linearGradient id="linearGradient1" x1="0" y1="20" x2="119" y2="20" gradientUnits="userSpaceOnUse">
            <stop offset="0" stop-color="#00ff6f" stop-opacity="1"/>
            <stop offset="1" stop-color="#0078ff" stop-opacity="1"/>
        </linearGradient>
        <path id="path1" fill="url(#linearGradient1)" fill-rule="evenodd" stroke="none" d="M 0 33 C -0 36.865993 3.134007 40 7 40 L 112 40 C 115.86599 40 119 36.865993 119 33 L 119 7 C 119 3.134007 115.86599 0 112 0 L 7 0 C 3.134007 0 0 3.134007 0 7 Z"/>
        <path id="path2" fill="#ffffff" fill-rule="evenodd" stroke="none" d="M 7 40 C 3.134007 40 0 36.865993 0 33 L 0 7 C 0 3.134007 3.134007 0 7 0 L 112 0 C 115.86599 0 119 3.134007 119 7 L 119 33 C 119 36.865993 115.86599 40 112 40 L 7 40 Z M 1 33 L 1 7 C 1 3.686291 3.686291 1 7 1 L 112 1 C 115.313705 1 118 3.686293 118 7 L 118 33 C 118 36.313705 115.313705 39 112 39 L 7 39 C 3.686291 39 1 36.313709 1 33 Z"/>
    </g>
    <text id="Try-the-newest-beta" xml:space="preserve"><tspan x="27" y="19" font-family="Helvetica Neue" font-size="10" font-weight="700" fill="#000000" xml:space="preserve">T</tspan><tspan font-family="Helvetica Neue" font-size="10" font-weight="700" fill="#000000" xml:space="preserve">r</tspan><tspan font-family="Helvetica Neue" font-size="10" font-weight="700" fill="#000000" xml:space="preserve">y</tspan><tspan font-family="Helvetica Neue" font-size="10" font-weight="700" fill="#000000" xml:space="preserve"> th</tspan><tspan font-family="Helvetica Neue" font-size="10" font-weight="700" fill="#000000" xml:space="preserve">e</tspan><tspan font-family="Helvetica Neue" font-size="10" font-weight="700" fill="#000000" xml:space="preserve"> n</tspan><tspan font-family="Helvetica Neue" font-size="10" font-weight="700" fill="#000000" xml:space="preserve">e</tspan><tspan font-family="Helvetica Neue" font-size="10" font-weight="700" fill="#000000" xml:space="preserve">west</tspan><tspan x="27" y="30.09007" font-family="Helvetica Neue" font-size="10" font-weight="700" fill="#000000" xml:space="preserve">bet</tspan><tspan font-family="Helvetica Neue" font-size="10" font-weight="700" fill="#000000" xml:space="preserve">a on TestF</tspan><tspan font-family="Helvetica Neue" font-size="10" font-weight="700" fill="#000000" xml:space="preserve">li</tspan><tspan font-family="Helvetica Neue" font-size="10" font-weight="700" fill="#000000" xml:space="preserve">g</tspan><tspan font-family="Helvetica Neue" font-size="10" font-weight="700" fill="#000000" xml:space="preserve">h</tspan><tspan font-family="Helvetica Neue" font-size="10" font-weight="700" fill="#000000" xml:space="preserve">t</tspan></text>
    <g id="Group">
        <path id="path3" fill="#00a1fe" fill-rule="evenodd" stroke="none" d="M 5 26 C 5 28.761425 7.238576 31 10 31 L 22 31 C 24.761423 31 27 28.761425 27 26 L 27 14 C 27 11.238577 24.761423 9 22 9 L 10 9 C 7.238576 9 5 11.238577 5 14 Z"/>
        <g id="g1" opacity="0.396226">
            <g id="Line">
                <path id="path4" fill="#00a1fe" fill-rule="evenodd" stroke="#ffffff" stroke-width="2" d="M 22 9 L 22 31"/>
                <path id="path5" fill="#00a1fe" fill-rule="evenodd" stroke="none" d=""/>
            </g>
            <g id="g2">
                <path id="path6" fill="#00a1fe" fill-rule="evenodd" stroke="#ffffff" stroke-width="2" d="M 18 9 L 18 31"/>
                <path id="path7" fill="#00a1fe" fill-rule="evenodd" stroke="none" d=""/>
            </g>
            <g id="g3">
                <path id="path8" fill="#00a1fe" fill-rule="evenodd" stroke="#ffffff" stroke-width="2" d="M 14 9 L 14 31"/>
                <path id="path9" fill="#00a1fe" fill-rule="evenodd" stroke="none" d=""/>
            </g>
            <g id="g4">
                <path id="path10" fill="#00a1fe" fill-rule="evenodd" stroke="#ffffff" stroke-width="2" d="M 10 9 L 10.000062 31"/>
                <path id="path11" fill="#00a1fe" fill-rule="evenodd" stroke="none" d=""/>
            </g>
            <g id="g5">
                <path id="path12" fill="#00a1fe" fill-rule="evenodd" stroke="#ffffff" stroke-width="2" d="M 5 14 L 27 14"/>
                <path id="path13" fill="#00a1fe" fill-rule="evenodd" stroke="none" d=""/>
            </g>
            <g id="g6">
                <path id="path14" fill="#00a1fe" fill-rule="evenodd" stroke="#ffffff" stroke-width="2" d="M 5 18 L 27 18"/>
                <path id="path15" fill="#00a1fe" fill-rule="evenodd" stroke="none" d=""/>
            </g>
            <g id="g7">
                <path id="path16" fill="#00a1fe" fill-rule="evenodd" stroke="#ffffff" stroke-width="2" d="M 5 22 L 27 22"/>
                <path id="path17" fill="#00a1fe" fill-rule="evenodd" stroke="none" d=""/>
            </g>
            <g id="g8">
                <path id="path18" fill="#00a1fe" fill-rule="evenodd" stroke="#ffffff" stroke-width="2" d="M 5 26 L 27 26"/>
                <path id="path19" fill="#00a1fe" fill-rule="evenodd" stroke="none" d=""/>
            </g>
        </g>
        <g id="logo-3">
            <path id="Path" fill="#000000" stroke="none" d="M 8.575707 19.178902 L 9.001608 19.178902 L 9.001608 22.710831 L 8.575707 22.710831 Z M 9.095098 22.710831 L 9.095098 19.178902 L 9.521077 19.178902 L 9.521077 22.710831 Z"/>
            <path id="path20" fill="#000000" stroke="none" d="M 10.637685 22.710831 L 10.242949 22.710831 L 10.242949 19.132156 C 10.242949 19.100994 10.25853 19.075026 10.315663 19.121769 L 12.543924 20.965683 L 12.543924 19.178902 L 12.938661 19.178902 L 12.938661 21.791512 L 10.637685 19.906048 Z M 11.120717 20.934519 L 11.120717 22.710831 L 10.731174 22.710831 L 10.731174 20.103416 L 13.03215 21.98888 L 13.03215 19.178902 L 13.421693 19.178902 L 13.421693 22.76285 C 13.421693 22.804401 13.406111 22.819984 13.348978 22.773319 Z"/>
            <path id="path21" fill="#000000" stroke="none" d="M 14.122709 19.178902 L 15.488784 19.178902 C 16.506786 19.178902 17.275484 19.848915 17.275484 20.944986 C 17.275484 22.040899 16.506786 22.710911 15.488784 22.710911 L 14.122709 22.710911 Z M 14.548688 22.357647 L 15.436844 22.357647 C 16.257559 22.357647 16.839277 21.817482 16.839277 20.944906 C 16.839277 20.072252 16.257559 19.532087 15.436844 19.532087 L 14.548688 19.532087 Z M 14.642179 19.625578 L 15.436844 19.625578 C 16.205622 19.625578 16.745787 20.134579 16.745787 20.944906 C 16.745787 21.755156 16.205622 22.264156 15.436844 22.264156 L 14.642179 22.264156 Z M 15.384905 21.910971 C 15.956234 21.910971 16.30942 21.531818 16.30942 20.944906 C 16.30942 20.357918 15.956234 19.978762 15.384905 19.978762 L 15.068078 19.978762 L 15.068078 21.910971 Z"/>
            <path id="path22" fill="#000000" stroke="none" d="M 17.784405 19.178902 L 20.261972 19.178902 L 20.261972 19.532087 L 18.210304 19.532087 L 18.210304 22.362841 L 20.334688 22.362841 L 20.334688 22.710752 L 17.784405 22.710752 Z M 20.007393 20.887774 L 18.303795 20.887774 L 18.303795 19.625578 L 20.261972 19.625578 L 20.261972 19.973568 L 18.729694 19.973568 L 18.729694 20.555285 L 20.007393 20.555285 Z M 20.334688 22.26935 L 18.303795 22.26935 L 18.303795 20.981264 L 20.007393 20.981264 L 20.007393 21.308479 L 18.729694 21.308479 L 18.729694 21.916166 L 20.334688 21.916166 Z"/>
            <path id="path23" fill="#000000" stroke="none" d="M 20.812366 19.178902 L 21.290205 19.178902 L 22.297741 20.789011 L 21.0564 22.710831 L 20.620113 22.710831 L 21.840759 20.81498 Z M 22.360308 20.872192 L 23.508158 22.710831 L 23.040628 22.710831 L 22.329063 21.510962 L 21.601917 22.710831 L 21.170746 22.710831 Z M 21.404551 19.178902 L 21.866808 19.178902 L 22.396666 20.072252 L 22.921169 19.178902 L 23.347069 19.178902 L 22.360228 20.711182 Z M 23.627539 22.710831 L 22.422554 20.789011 L 23.466608 19.178902 L 23.902815 19.178902 L 22.879618 20.773428 L 24.095068 22.710831 Z"/>
            <path id="path24" fill="#000000" stroke="none" d="M 10.365604 15.177286 L 11.874071 15.177286 C 12.56446 15.177286 13.009297 15.494352 13.009297 16.077347 C 13.009297 16.491581 12.804737 16.72163 12.528582 16.82391 C 12.850763 16.915962 13.157603 17.151205 13.157603 17.647182 C 13.157603 18.281239 12.69223 18.65456 11.828046 18.65456 L 10.365604 18.65456 Z M 11.746302 16.537527 C 12.002001 16.537527 12.099167 16.419905 12.099167 16.225573 C 12.099167 16.031242 12.012229 15.908506 11.75653 15.908506 L 11.265587 15.908506 L 11.265587 16.537527 Z M 11.822931 17.923338 C 12.124578 17.923338 12.226936 17.785261 12.226936 17.560326 C 12.226936 17.335308 12.119543 17.202345 11.822931 17.202345 L 11.265507 17.202345 L 11.265507 17.923338 Z"/>
            <path id="path25" fill="#000000" stroke="none" d="M 13.710154 15.177286 L 14.64074 15.177286 L 14.64074 18.65456 L 13.710154 18.65456 Z"/>
            <path id="path26" fill="#000000" stroke="none" d="M 17.346041 15.177286 L 18.353336 15.177286 L 17.197655 16.685833 L 18.491415 18.65456 L 17.391987 18.65456 L 16.563601 17.391483 L 16.272102 17.749382 L 16.272102 18.654478 L 15.341516 18.654478 L 15.341516 15.177286 L 16.272102 15.177286 L 16.272102 16.61935 Z"/>
            <path id="path27" fill="#000000" stroke="none" d="M 18.905888 15.177286 L 21.34502 15.177286 L 21.34502 15.959726 L 19.836473 15.959726 L 19.836473 16.532413 L 21.094435 16.532413 L 21.094435 17.273861 L 19.836473 17.273861 L 19.836473 17.872118 L 21.416536 17.872118 L 21.416536 18.65456 L 18.905807 18.65456 L 18.905807 15.177286 Z"/>
            <path id="path28" fill="#000000" stroke="none" d="M 9.33082 18.649685 C 8.629805 16.585072 8.272144 14.795975 8.112971 13.841974 C 9.293264 13.518995 12.162373 12.859529 15.884718 12.859529 C 18.550705 12.859529 21.165632 13.193937 23.663895 13.85428 C 23.49897 14.812035 23.132919 16.599773 22.429586 18.649765 L 23.316864 18.649765 C 24.082363 16.348709 24.432194 14.406273 24.555088 13.612326 L 24.612221 13.243238 L 24.252405 13.143196 C 21.571714 12.397274 18.756302 12.018997 15.884718 12.018997 C 11.597516 12.018997 8.397837 12.87487 7.519269 13.137123 L 7.17 13.241402 L 7.224017 13.601936 C 7.342437 14.394285 7.682598 16.335764 8.444662 18.649685 Z"/>
            <path id="path29" fill="#000000" stroke="none" d="M 20.345795 23.23094 C 19.248684 25.073814 17.786564 26.850048 15.868017 28.025227 C 13.949952 26.850048 12.491905 25.073814 11.400068 23.23094 L 10.430728 23.23094 C 11.64562 25.395117 13.33923 27.534683 15.657306 28.877983 L 15.867937 29 L 16.07881 28.877983 C 18.396965 27.534683 20.095449 25.395117 21.316494 23.23094 Z"/>
        </g>
    </g>
</svg>
