<?xml version="1.0" encoding="UTF-8"?>
<!-- Generated by Pixelmator Pro 3.7 -->
<svg width="1024" height="1024" viewBox="0 0 1024 1024" xmlns="http://www.w3.org/2000/svg">
    <g id="Group-copy">
        <g id="Group">
            <path id="Path" fill="#ffffff" stroke="none" d="M 173.310547 452.256409 L 193.076035 452.256409 L 193.076035 616.238525 L 173.310547 616.238525 Z M 197.428192 616.238525 L 197.428192 452.256409 L 217.186172 452.256409 L 217.186172 616.238525 Z"/>
            <path id="path1" fill="#ffffff" stroke="none" d="M 269.035767 616.238525 L 250.708435 616.238525 L 250.708435 450.072815 C 250.708435 448.634705 251.438828 447.429871 254.096817 449.583435 L 357.539978 535.248901 L 357.539978 452.256409 L 375.882355 452.256409 L 375.882355 573.545044 L 269.035767 486.012146 Z M 291.444183 533.788147 L 291.444183 616.238525 L 273.372864 616.238525 L 273.372864 495.175781 L 380.219482 582.708679 L 380.219482 452.256409 L 398.290802 452.256409 L 398.290802 618.655518 C 398.290802 620.575562 397.57547 621.298462 394.932526 619.137451 Z"/>
            <path id="path2" fill="#ffffff" stroke="none" d="M 430.841705 452.256409 L 494.279541 452.256409 C 541.520935 452.256409 577.226807 483.369202 577.226807 534.247437 C 577.226807 585.125732 541.528503 616.238525 494.279541 616.238525 L 430.841705 616.238525 Z M 450.607208 599.831299 L 491.85498 599.831299 C 529.932739 599.831299 556.964417 574.749756 556.964417 534.247437 C 556.964417 493.745178 529.932739 468.663696 491.85498 468.663696 L 450.607208 468.663696 Z M 454.966919 473.000793 L 491.85498 473.000793 C 527.553345 473.000793 552.619751 496.613953 552.619751 534.247437 C 552.619751 571.858398 527.553345 595.524231 491.85498 595.524231 L 454.966919 595.524231 Z M 489.437958 579.086914 C 515.987671 579.086914 532.379883 561.482422 532.379883 534.239929 C 532.379883 506.997437 515.987671 489.370361 489.437958 489.370361 L 474.73996 489.370361 L 474.73996 579.086914 Z"/>
            <path id="path3" fill="#ffffff" stroke="none" d="M 600.840027 452.256409 L 715.871399 452.256409 L 715.871399 468.663696 L 620.620544 468.663696 L 620.620544 600.102295 L 719.267273 600.102295 L 719.267273 616.246033 L 600.840027 616.246033 Z M 704.064819 531.604553 L 624.972717 531.604553 L 624.972717 473.000793 L 715.871399 473.000793 L 715.871399 489.144531 L 644.73822 489.144531 L 644.73822 516.145996 L 704.064819 516.145996 Z M 719.267273 595.75769 L 624.972717 595.75769 L 624.972717 535.911499 L 704.064819 535.911499 L 704.064819 551.136597 L 644.73822 551.136597 L 644.73822 579.350464 L 719.259766 579.350464 L 719.259766 595.75769 Z"/>
            <path id="path4" fill="#ffffff" stroke="none" d="M 741.434753 452.256409 L 763.624878 452.256409 L 810.399414 527.033997 L 752.767029 616.238525 L 732.512085 616.238525 L 789.180664 528.216187 Z M 813.29834 530.881714 L 866.593628 616.230957 L 844.870422 616.230957 L 811.860168 560.526123 L 778.074341 616.230957 L 758.075439 616.230957 Z M 768.92572 452.256409 L 790.370361 452.256409 L 814.992554 493.745178 L 839.328552 452.256409 L 859.109131 452.256409 L 813.29834 523.38208 Z M 872.135498 616.238525 L 816.18219 527.033997 L 864.658508 452.256409 L 884.913391 452.256409 L 837.393433 526.288574 L 893.836121 616.238525 Z"/>
            <path id="path5" fill="#ffffff" stroke="none" d="M 256.408417 266.460815 L 326.449829 266.460815 C 358.496277 266.460815 379.127655 281.173889 379.127655 308.265747 C 379.127655 327.47406 369.647766 338.173767 356.832214 342.932556 C 371.80127 347.194397 386.055023 358.119995 386.055023 381.145813 C 386.055023 410.579529 364.42215 427.912903 324.326416 427.912903 L 256.408417 427.912903 Z M 320.523926 329.620056 C 332.390747 329.620056 336.901062 324.16095 336.901062 315.140381 C 336.901062 306.134888 332.865112 300.412292 320.983246 300.412292 L 298.205872 300.412292 L 298.205872 329.612549 L 320.523926 329.612549 Z M 324.070404 393.961426 C 338.105804 393.961426 342.834473 387.538574 342.834473 377.09491 C 342.834473 366.666199 337.849792 360.484314 324.070404 360.484314 L 298.198334 360.484314 L 298.198334 393.953918 L 324.070404 393.953918 Z"/>
            <path id="path6" fill="#ffffff" stroke="none" d="M 411.686157 266.460815 L 454.891632 266.460815 L 454.891632 427.905334 L 411.686157 427.905334 Z"/>
            <path id="path7" fill="#ffffff" stroke="none" d="M 580.494751 266.460815 L 627.254272 266.460815 L 573.61261 336.502197 L 633.677063 427.905334 L 582.640686 427.905334 L 544.171387 369.279053 L 530.655579 385.889587 L 530.655579 427.905334 L 487.42749 427.905334 L 487.42749 266.460815 L 530.655579 266.460815 L 530.655579 333.415039 Z"/>
            <path id="path8" fill="#ffffff" stroke="none" d="M 652.900452 266.460815 L 766.184937 266.460815 L 766.184937 302.791687 L 696.128479 302.791687 L 696.128479 329.379089 L 754.521423 329.379089 L 754.521423 363.8125 L 696.128479 363.8125 L 696.128479 391.589539 L 769.490479 391.589539 L 769.490479 427.905334 L 652.900452 427.905334 Z"/>
        </g>
        <g id="g1">
            <path id="path9" fill="#3498db" stroke="none" d="M 208.361359 427.694519 C 175.825455 331.848816 159.207397 248.765991 151.82074 204.461182 C 206.621979 189.492126 339.830109 158.85376 512.652039 158.85376 C 636.410339 158.85376 757.819397 174.380005 873.799561 205.033447 C 866.156921 249.511414 849.162354 332.511414 816.513489 427.694519 L 857.685974 427.694519 C 893.241272 320.847961 909.482849 230.664551 915.190369 193.814148 L 917.848389 176.676514 L 901.124878 172.023193 C 776.696411 137.409119 645.973145 119.849854 512.652039 119.849854 C 313.596588 119.849854 165.050446 159.553955 124.246941 171.752136 L 108.027946 176.593689 L 110.54287 193.347351 C 116.039558 230.122437 131.844421 320.253052 167.211472 427.702026 L 208.361359 427.702026 Z"/>
            <path id="path10" fill="#3498db" stroke="none" d="M 719.756714 640.371216 C 668.833313 725.931274 600.960449 808.381714 511.868958 862.972046 C 422.822601 808.381714 355.138 725.931274 304.44046 640.371216 L 259.450439 640.371216 C 315.847961 740.870239 394.480743 840.187134 502.102905 902.533142 L 511.868958 908.218079 L 521.6651 902.533142 C 629.287231 840.187134 708.153442 740.862732 764.837097 640.371216 Z"/>
        </g>
    </g>
</svg>
